<svg xmlns="http://www.w3.org/2000/svg" viewBox="0 0 20 30"><defs><style>.cls-1{isolation:isolate;}</style></defs><title>Station Swap</title><g id="onlyLeg"><g id="Arrow"><g id="_42-interface_-_arrow_right" data-name="42-interface - arrow right" class="cls-1"><g id="_42-interface_-_arrow_right-2" data-name="42-interface - arrow right"><path d="M5.72,11.71.13,19.18a.62.62,0,0,0-.07.61.52.52,0,0,0,.47.33l3,0c.1,3.35,1.08,5.94,2.87,7.63,2.92,2.74,7.17,2.13,7.34,2.1a.52.52,0,0,0,.45-.53v0a.5.5,0,0,0-.48-.5c-.19,0-4.91-.59-4.91-8.67l3,0a.52.52,0,0,0,.48-.33.62.62,0,0,0-.07-.61L6.54,11.71a.5.5,0,0,0-.81,0ZM10.67,19H8.23a.5.5,0,0,0-.37.17.61.61,0,0,0-.15.41h0c0,5.77,1.78,8,3.35,9.23a7.42,7.42,0,0,1-4-1.89c-1.64-1.56-2.51-4.06-2.51-7.34A.55.55,0,0,0,4,19H1.64l4.49-6Z"/></g></g></g><g id="Arrow-2" data-name="Arrow"><g id="_42-interface_-_arrow_right-3" data-name="42-interface - arrow right" class="cls-1"><g id="_42-interface_-_arrow_right-4" data-name="42-interface - arrow right"><path d="M14.3,18.31l5.6-7.48a.62.62,0,0,0,.07-.61.52.52,0,0,0-.47-.33l-3,0c-.1-3.35-1.08-5.94-2.87-7.63C10.74-.49,6.49.12,6.32.15a.52.52,0,0,0-.45.53s0,0,0,0a.5.5,0,0,0,.48.5c.19,0,4.91.59,4.91,8.67l-3,0a.52.52,0,0,0-.48.33.62.62,0,0,0,.07.61l5.65,7.48a.5.5,0,0,0,.81,0ZM9.35,11h2.44a.5.5,0,0,0,.37-.17.61.61,0,0,0,.15-.41h0c0-5.77-1.78-8-3.35-9.23a7.42,7.42,0,0,1,4,1.89c1.64,1.56,2.51,4.06,2.51,7.34A.55.55,0,0,0,16,11h2.36l-4.49,6Z"/></g></g></g></g></svg>