<svg xmlns="http://www.w3.org/2000/svg" xmlns:xlink="http://www.w3.org/1999/xlink" viewBox="0 0 21.35 20.84"><defs><style>.cls-1,.cls-4,.cls-6{fill:none;}.cls-2{clip-path:url(#clip-path);}.cls-3{fill:#37a3ff;}.cls-4{stroke:#2bd8ff;}.cls-4,.cls-6{stroke-miterlimit:10;}.cls-5{fill:#01010c;}.cls-6{stroke:#da005b;}.cls-7{fill:#c2c0cc;}.cls-8{fill:#01010a;}.cls-9{fill:#07060c;}.cls-10{fill:#e8e8ef;}.cls-11{fill:#ebebf2;}</style><clipPath id="clip-path" transform="translate(0.46 0.45)"><rect class="cls-1" width="20.42" height="19.92"/></clipPath></defs><title>METRO</title><g id="Layer_2" data-name="Layer 2"><g id="Layer_2-2" data-name="Layer 2"><g id="Metro_Icon" data-name="Metro Icon"><g class="cls-2"><g class="cls-2"><path class="cls-3" d="M18.39,19.85l-16.81,0a.89.89,0,0,1-.89-.8C.07,17.71.2,15.3,0,12.62A94.84,94.84,0,0,1,1.59,1.79C1.85.66,2.22.28,3.38.21,6.41,0,12.92,0,16,.11a2.34,2.34,0,0,1,2.44,1.6c1.59,3.84,2,10.68,2,10.68a27.29,27.29,0,0,1-1.13,6.74.87.87,0,0,1-.86.72" transform="translate(0.46 0.45)"/><path class="cls-4" d="M18.39,19.85l-16.81,0a.89.89,0,0,1-.89-.8C.07,17.71.2,15.3,0,12.62A94.84,94.84,0,0,1,1.59,1.79C1.85.66,2.22.28,3.38.21,6.41,0,12.92,0,16,.11a2.34,2.34,0,0,1,2.44,1.6c1.59,3.84,2,10.68,2,10.68a27.29,27.29,0,0,1-1.13,6.74A.87.87,0,0,1,18.39,19.85Z" transform="translate(0.46 0.45)"/><path class="cls-5" d="M15,19.82l-10.25,0c-.11-.48-.07-.21-.16-.66h0v-.11c0-.37,0-.66.35-.66h9.91c.25,0,.29.39.29.66v.12a2.79,2.79,0,0,1-.12.63" transform="translate(0.46 0.45)"/><path class="cls-6" d="M15,19.82l-10.25,0c-.11-.48-.07-.21-.16-.66h0v-.11c0-.37,0-.66.35-.66h9.91c.25,0,.29.39.29.66v.12A2.79,2.79,0,0,1,15,19.82Z" transform="translate(0.46 0.45)"/><path class="cls-7" d="M14,13.91l-8.79-.26c-.49,0-.63-.07-.63-.55L3.4,4.42c0-.49.41-.74,0-.8H14c.49,0,1.7,0,1.7.54L14.84,13a.89.89,0,0,1-.89.89" transform="translate(0.46 0.45)"/><polygon class="cls-5" points="9.68 15.58 11.55 10.66 11.55 10.41 11.87 10.39 11.87 7.26 12.1 7.9 12.22 10.39 12.19 13.1 11.97 13.12 11.92 10.73 11.65 10.78 9.98 15.41 9.68 15.58"/><polygon class="cls-5" points="10.2 15.56 11.92 11 11.92 11.72 10.42 15.58 10.2 15.56"/><path class="cls-8" d="M1,4.25l1.43,7.21c.14.75.7,2.83,1.29,3.31l0,0c.18.12,0,.07.46.24H15.17a1.42,1.42,0,0,0,1.16-.64l.17-.38a.92.92,0,0,0,.07-.25c.1-.71.58-2.88.6-3l1.5-8.15,1.13,5c.07.53.86,4.31,0,5.81l-.21.48a5.17,5.17,0,0,1-1.54,1.69l-.62.34a3.81,3.81,0,0,1-1.62.54l-11,.16a11.35,11.35,0,0,1-2.52-.29A2.61,2.61,0,0,1,.33,14a25.48,25.48,0,0,1-.19-2.55Z" transform="translate(0.46 0.45)"/><path class="cls-9" d="M10.91,0,3.51.18h0a.66.66,0,0,0-.61.64l0,.53v.06a.62.62,0,0,0,0,.07c0,.13,0,.27,0,.43s0,0,0,.06L4.16,13c.06.48.58,1.1,1.07,1.1l9.15-.06a.68.68,0,0,0,.3-.07c.49-.25.46-.39.59-.69a1.2,1.2,0,0,0,.1-.33l1.48-11a.85.85,0,0,0,0-.1,1.56,1.56,0,0,1,0-.23V1.39a.66.66,0,0,0,0-.1l0-.5a.67.67,0,0,0-.64-.61L10.95,0h0M6,13.69H5.43a.67.67,0,0,1-.54-.25l-.06-.08A.66.66,0,0,1,4.69,13L3.84,4.89a.66.66,0,0,1,.67-.73l1.58,0a.66.66,0,0,1,.66.67L6.64,13a.66.66,0,0,1-.66.65m5.59-1.15-3.44-.07a.66.66,0,0,1-.65-.65L7.39,4.36a.66.66,0,0,1,.67-.67l3.76,0a.66.66,0,0,1,.66.68l-.23,7.51a.67.67,0,0,1-.68.64m2.54.87-.54,0a.67.67,0,0,1-.72-.67l.09-8a.66.66,0,0,1,.65-.65l1.23,0a.66.66,0,0,1,.68.73l-.78,7.95a.66.66,0,0,1-.61.6" transform="translate(0.46 0.45)"/><path class="cls-10" d="M7.26,15.86a.62.62,0,1,1-.61-.66.64.64,0,0,1,.61.66" transform="translate(0.46 0.45)"/><path class="cls-11" d="M13.48,15.8a.63.63,0,1,1-.63-.61.62.62,0,0,1,.63.61" transform="translate(0.46 0.45)"/></g></g></g></g></g></svg>