<svg xmlns="http://www.w3.org/2000/svg" viewBox="0 0 41 60"><defs><style>.cls-1{fill:#29abe2;}.cls-2{fill:#666;}</style></defs><title>ShowMap</title><g id="showMap"><path class="cls-1" d="M38.85,18.29A17.72,17.72,0,0,0,21.19.51C11.43.51,4.63,8.31,3.31,17.75a14.62,14.62,0,0,0,.31,6.19,33.44,33.44,0,0,0,2.28,5c6.5,13.2,10.66,14.37,14.23,26.84.12.42.08,3.45.46,3.45s.63-3,.72-3.39c2.41-11.05,6.6-15.38,14-26.88A17.75,17.75,0,0,0,38.85,18.29Z"/><ellipse class="cls-2" cx="20.78" cy="18.83" rx="10.11" ry="9.66"/></g></svg>