<svg xmlns="http://www.w3.org/2000/svg" viewBox="0 0 20 20"><defs><style>.cls-1{fill:#29abe2;}</style></defs><title>StationSeperator</title><g id="onlyLeg"><g id="wind"><path class="cls-1" d="M16.15,1C14,1,12.33,3,12.33,5.6V7.14H13.6V5.6a2.86,2.86,0,0,1,2.55-3.08A2.86,2.86,0,0,1,18.71,5.6a2.86,2.86,0,0,1-2.55,3.08H0v1.54H16.15C18.28,10.21,20,8.16,20,5.6S18.28,1,16.15,1ZM11,3.55c0-2-1.32-3.59-3-3.59s-3,1.59-3,3.59v.51H6.36V3.55A1.91,1.91,0,0,1,8.07,1.5a1.9,1.9,0,0,1,1.7,2.05,1.9,1.9,0,0,1-1.7,2.05H0V7.14H8.07C9.73,7.14,11,5.55,11,3.55Zm3.4,8.2H0v1.54H14.45a2.35,2.35,0,0,1,2.13,2.56,2.35,2.35,0,0,1-2.13,2.56,2.35,2.35,0,0,1-2.13-2.56v-1H11v1c0,2.26,1.53,4.1,3.4,4.1s3.4-1.85,3.4-4.1S16.32,11.76,14.45,11.76Z"/></g></g></svg>