<svg xmlns="http://www.w3.org/2000/svg" viewBox="0 0 30 30"><defs><style>.cls-1{fill:none;}.cls-2{fill:#231f20;}</style></defs><title>ContactUsSelected</title><g id="Radio_Button_Background" data-name="Radio Button Background"><g id="letter"><polygon class="cls-1" points="22.15 21.38 27.96 26.64 27.96 16.22 22.15 21.38"/><path class="cls-1" d="M15.67,18a1.21,1.21,0,0,0-.71-.23,1.14,1.14,0,0,0-.71.25l-4,3.72s0,.1-.08.15a1,1,0,0,1-.32.24L3.47,28H26.73Z"/><polygon class="cls-1" points="27.73 13.96 26.15 12.35 26.17 12.35 24.27 10.45 24.27 17.03 27.73 13.96"/><polygon class="cls-1" points="8.05 21.25 2.14 16.05 2.14 26.73 8.05 21.25"/><polygon class="cls-1" points="5.83 16.84 5.83 10.57 3.29 13.11 3.25 13.11 2.47 13.88 5.83 16.84"/><path class="cls-1" d="M15.76,2.44a.94.94,0,0,0-.66-.27.89.89,0,0,0-.65.27L12.6,4h5Z"/><path class="cls-1" d="M9.41,20l3.65-3.38a3,3,0,0,1,3.8,0l3.93,3.56,1.65-1.46V5.85H7.67V18.47Z"/><path class="cls-2" d="M29.8,14.21h0s0,0,0,0a1,1,0,0,0-.05-.32,1.78,1.78,0,0,0-.31-.74h0l0,0a1.75,1.75,0,0,0-.33-.33L24.27,7.9v-3A.92.92,0,0,0,23.35,4H20.43L17.06,1.13a2.83,2.83,0,0,0-3.91,0L9.8,4h-3a.92.92,0,0,0-.92.92V8l-4.7,4.7A1.84,1.84,0,0,0,.3,14.19V28a1.85,1.85,0,0,0,1.84,1.84H28A1.85,1.85,0,0,0,29.8,28V14.21ZM8,21.25l-5.9,5.48V16Zm1.78.86a1,1,0,0,0,.32-.24.6.6,0,0,0,.08-.15l4-3.72a1.1,1.1,0,0,1,.71-.25,1.21,1.21,0,0,1,.71.23L26.73,28H3.47Zm12.32-.74L28,16.22V26.64Zm4-9h0L27.73,14,24.28,17V10.45ZM14.46,2.44a.94.94,0,0,1,.65-.27.91.91,0,0,1,.66.27L17.63,4h-5Zm8,3.41V18.67l-1.65,1.46-3.93-3.56a3,3,0,0,0-3.8,0L9.41,20,7.67,18.47V5.85ZM3.29,13.11l2.54-2.54v6.27l-3.36-3,.78-.77Z"/></g></g></svg>