<svg xmlns="http://www.w3.org/2000/svg" viewBox="0 0 30 30"><title>ContactUs</title><g id="Radio_Button_Background" data-name="Radio Button Background"><g id="letter"><path d="M14,13.84a.56.56,0,0,1-.56.56H3.13a.56.56,0,1,1,0-1.11H13.4A.56.56,0,0,1,14,13.84ZM3.13,18.32H13.4a.56.56,0,1,0,0-1.11H3.13a.56.56,0,1,0,0,1.11Zm0,3.91H13.4a.56.56,0,1,0,0-1.11H3.13a.56.56,0,1,0,0,1.11Zm0,3.92H19.54a.56.56,0,1,0,0-1.11H3.13a.56.56,0,1,0,0,1.11ZM29.64,8.57l-1,1.45L22,19.54a.56.56,0,0,1-.28.21l-6.44,2.19a.51.51,0,0,1-.19,0,.56.56,0,0,1-.34-.11.55.55,0,0,1-.22-.47L14.84,15a.57.57,0,0,1,.09-.28l.16-.23L21.84,4.7l.6-.78.11-.15a1.93,1.93,0,0,1,1.67-.91A6,6,0,0,1,27.35,4.2C29.18,5.43,30.86,6.8,29.64,8.57Zm-6.31-4,0,0A9.71,9.71,0,0,1,26.15,6a9.72,9.72,0,0,1,2.37,2.2l.18-.25c.39-.57.5-1.14-2-2.84A5.33,5.33,0,0,0,24.22,4a.83.83,0,0,0-.74.42ZM20.48,19a2.54,2.54,0,0,0-1.17-.58.56.56,0,0,1-.46-.35A2,2,0,0,0,17.46,17a.55.55,0,0,1-.42-.36,2.05,2.05,0,0,0-1.09-1l-.17,3.22L17.44,20Zm-4.82,1.64.47-.16-.44-.31ZM27.83,9.19a7.82,7.82,0,0,0-2.31-2.28,7.74,7.74,0,0,0-3-1.3l-.16.22-6,8.75A3.27,3.27,0,0,1,18,16a3.11,3.11,0,0,1,1.8,1.4,3.79,3.79,0,0,1,1.67,1ZM.21,9.19a.55.55,0,0,1,.12-.6L8.42.45A.58.58,0,0,1,9,.32a.56.56,0,0,1,.35.52V6.61A2.94,2.94,0,0,1,6.44,9.53H.73A.57.57,0,0,1,.21,9.19Zm1.87-.77H6.44a1.81,1.81,0,0,0,1.82-1.8V2.2Zm8.13-7h9.33a2,2,0,0,1,2,1.93.56.56,0,0,0,.56.54h0a.56.56,0,0,0,.54-.57,3.1,3.1,0,0,0-3.12-3H10.21a.56.56,0,1,0,0,1.12ZM22.1,19.61a.56.56,0,0,0-.56.56v6.59a2,2,0,0,1-2,2H3.3a2,2,0,0,1-2-2V10.36a.56.56,0,0,0-1.12,0v16.4a3.12,3.12,0,0,0,3.13,3.1H19.54a3.12,3.12,0,0,0,3.13-3.1V20.17A.56.56,0,0,0,22.1,19.61Z"/></g></g></svg>