<svg xmlns="http://www.w3.org/2000/svg" viewBox="0 0 30 30"><defs><style>.cls-1{fill:#231f20;}</style></defs><title>RealTime</title><g id="Radio_Button_Background" data-name="Radio Button Background"><g id="sync_time" data-name="sync time"><path class="cls-1" d="M15,5.63A1.09,1.09,0,0,1,16.06,6.7v9.4A1.09,1.09,0,0,1,15,17.18H6.71a1.07,1.07,0,1,1,0-2.14h7.14V6.7A1.09,1.09,0,0,1,15,5.63Z"/><path class="cls-1" d="M4.43,5.18a15.26,15.26,0,0,1,21,0l.54.53V1.23a1.11,1.11,0,0,1,2.21,0V8.3a1.09,1.09,0,0,1-1.11,1.07H19.81a1.07,1.07,0,1,1,0-2.14h4.64l-.54-.53A13,13,0,0,0,6,6.7,12,12,0,0,0,6,24a13,13,0,0,0,17.91,0,12,12,0,0,0,3.7-8.67,1.11,1.11,0,0,1,2.21,0,14.09,14.09,0,0,1-4.35,10.18,15.26,15.26,0,0,1-21,0,14.07,14.07,0,0,1,0-20.36Z"/></g></g></svg>