<svg xmlns="http://www.w3.org/2000/svg" viewBox="0 0 30 30"><defs><style>.cls-1,.cls-2{fill:none;}.cls-2{stroke:#000;stroke-miterlimit:10;stroke-width:1.5px;}</style></defs><title>RealTimeSelected</title><g id="Radio_Button_Background" data-name="Radio Button Background"><g id="Dove"><path class="cls-1" d="M18.94,8.3,17.58,1.7c-1.13.76-3.18,2.47-3.42,4.8l3.76,2.9Z"/><path class="cls-1" d="M26.27,7.7a2.36,2.36,0,0,0-2.32-1.83,2.38,2.38,0,0,0-1.82.83l-3.23,3.46L21.34,12a.59.59,0,0,1,.1.85.64.64,0,0,1-.88.09L7,2.56c-.5,1.58-1.14,5.51,3,9.54a9.44,9.44,0,0,0,3.76,2.27h0a8.67,8.67,0,0,0,4.16.3.63.63,0,0,1,.75.45.61.61,0,0,1-.46.73,8.25,8.25,0,0,1-1.69.16,10.58,10.58,0,0,1-2.94-.42L8,18.11l4.81,3.27,2.34-4.09a.64.64,0,0,1,.6-.31s4.77.35,6.83-1.65a3.34,3.34,0,0,0,.8-4,.58.58,0,0,1,0-.53.63.63,0,0,1,.42-.34,12.1,12.1,0,0,0,4.16-2l-1.22-.3A.61.61,0,0,1,26.27,7.7Zm-1.66.25a.74.74,0,0,1-.51.2.69.69,0,1,1,.71-.69A.69.69,0,0,1,24.61,7.95Z"/><path d="M24.1,6.78a.69.69,0,1,0,0,1.37.75.75,0,0,0,.51-.2.68.68,0,0,0,.21-.48A.7.7,0,0,0,24.1,6.78Z"/><path d="M29.87,8a.64.64,0,0,0-.45-.42l-2-.5a3.68,3.68,0,0,0-6.22-1.17L20,7.17,18.63.59a.6.6,0,0,0-.35-.43.66.66,0,0,0-.57,0C17.54.27,13.85,2.23,13,5.64L7.15,1.1A.66.66,0,0,0,6.62,1a.61.61,0,0,0-.43.32c0,.06-3,5.92,3,11.65A10.86,10.86,0,0,0,12,15L6.5,17.45a.6.6,0,0,0-.36.5.59.59,0,0,0,.26.55l6.27,4.27a.67.67,0,0,0,.36.11h.14a.62.62,0,0,0,.41-.3l2.49-4.35c1.3,0,5.31,0,7.42-2a4.56,4.56,0,0,0,1.31-4.74,13.26,13.26,0,0,0,4.93-2.86A.6.6,0,0,0,29.87,8ZM17.58,1.7l1.36,6.6-1,1.1L14.16,6.5C14.4,4.17,16.45,2.46,17.58,1.7Zm6.21,8.77a.62.62,0,0,0-.42.34.58.58,0,0,0,0,.53,3.35,3.35,0,0,1-.8,4c-2.07,2-6.79,1.66-6.83,1.65a.64.64,0,0,0-.6.31l-2.34,4.09L8,18.11l5.62-2.52a10.58,10.58,0,0,0,2.94.42,7.92,7.92,0,0,0,1.69-.16.6.6,0,0,0,.46-.73.63.63,0,0,0-.75-.45,8.81,8.81,0,0,1-4.16-.3h0A9.44,9.44,0,0,1,10,12.1c-4.15-4-3.51-8-3-9.54L20.56,13a.64.64,0,0,0,.88-.09.59.59,0,0,0-.1-.85l-2.44-1.89,3.22-3.45a2.39,2.39,0,0,1,1.82-.83,2.36,2.36,0,0,1,2.32,1.83.62.62,0,0,0,.46.47l1.22.3A12.2,12.2,0,0,1,23.79,10.47Z"/></g><line class="cls-2" x1="1.85" y1="25.95" x2="0.76" y2="19.52"/><line class="cls-2" x1="13.41" y1="27.6" x2="7.62" y2="29.18"/><line class="cls-2" x1="2.47" y1="9.9" x2="0.91" y2="0.81"/><line class="cls-2" x1="29.04" y1="22.68" x2="21.16" y2="24.82"/></g></svg>