<svg xmlns="http://www.w3.org/2000/svg" viewBox="0 0 30 30"><defs><style>.cls-1{fill:#414042;}.cls-2{fill:none;stroke:#000;stroke-miterlimit:10;stroke-width:2px;}</style></defs><title>TrafficStatus Selected</title><g id="Radio_Button_Background" data-name="Radio Button Background"><g id="bus-2" data-name="bus"><path class="cls-1" d="M22.19,5c0-.1,0-.19,0-.28h0a2.31,2.31,0,0,0-1.42-2.09h0l-.19-.06A43.53,43.53,0,0,0,6.35.72h-.2a2.31,2.31,0,0,0-1.9,1.66h0l-.07.27c-.63,2.46-2.4,9.46-2.68,11.7l-.17,1.35L.38,23.09a1.13,1.13,0,0,0,.81,1.27h0a.7.7,0,0,1,.48.79l-.15,1.2a.85.85,0,0,0,.57.84l.15.06h0a5.17,5.17,0,0,0,1,.24,5,5,0,0,0,1.08,0h.15a.86.86,0,0,0,.77-.67l.15-1.14v-.11A.7.7,0,0,1,6.13,25h.15l2.09.27,2,.26,2,.26,2.09.27h.15a.7.7,0,0,1,.48.73v.11l-.74.53c-2,1.6,5.92,1.32,6,1.16,3.53-.45-1.11-2-.78-1.91h0a1.13,1.13,0,0,0,1.1-1l.94-7.38L21.84,17C22.13,14.72,22.18,7.49,22.19,5ZM7.08,2.12l.42.05,4.9.63,4.9.63.42.05a.64.64,0,0,1,.51.74.64.64,0,0,1-.68.58L17,4.73l-4.77-.61L7.46,3.51l-.55-.07a.64.64,0,0,1-.51-.74A.63.63,0,0,1,7.08,2.12ZM3,21.1a1.37,1.37,0,0,1,.35-2.71A1.37,1.37,0,0,1,3,21.1Zm14,1.78a1.37,1.37,0,1,1,1.4-1.2A1.31,1.31,0,0,1,16.94,22.88Zm2.25-7.26a1.4,1.4,0,0,1-.5.92,1.15,1.15,0,0,1-.86.25l-2.53-.32-4.55-.58-4.55-.58L3.66,15a1.17,1.17,0,0,1-.78-.46,1.4,1.4,0,0,1-.26-1l0-.19c.14-1.08,1.54-7.24,1.54-7.24a2.08,2.08,0,0,1,.54-.93,1,1,0,0,1,.83-.25l.75.1L12,5.75l5.72.72.75.1a1,1,0,0,1,.74.45,2.05,2.05,0,0,1,.29,1s-.19,6.32-.33,7.4Z"/></g><line class="cls-2" x1="23.7" y1="19.7" x2="26.53" y2="16.62"/><line class="cls-2" x1="23.17" y1="26.43" x2="29.74" y2="23.73"/><line class="cls-2" x1="24.3" y1="11.25" x2="28.35" y2="5.41"/></g></svg>