<svg xmlns="http://www.w3.org/2000/svg" viewBox="0 0 18.74 19.77"><title>BUS</title><g id="Layer_2" data-name="Layer 2"><g id="Layer_2-2" data-name="Layer 2"><g id="Bus"><path d="M18.19,4.82H18V3.75h-.68v.07H16V1.43A1.39,1.39,0,0,0,14.67,0H4.07A1.39,1.39,0,0,0,2.71,1.43V4.28H1.11v.16H.78v.81H.55A.57.57,0,0,0,0,5.85V9.17a.57.57,0,0,0,.55.58h.94A.57.57,0,0,0,2,9.17V5.84a.56.56,0,0,0-.53-.58h0V5h1.2V17a1.39,1.39,0,0,0,1.36,1.43h.36a.26.26,0,0,1,.25.27h0v.41a.54.54,0,0,0,.53.55H6.48A.54.54,0,0,0,7,19.14v-.41s0,0,0,0a.19.19,0,0,1,.18-.22h4.61a.16.16,0,0,1,.16.17c0,.06,0,.12,0,.18v.41a.54.54,0,0,0,.53.55h1.27a.54.54,0,0,0,.53-.55V18.8s0-.05,0-.07a.25.25,0,0,1,.23-.27h.17A1.39,1.39,0,0,0,16,17V4.55h1.29v.31h-.11v0a.56.56,0,0,0-.53.58V8.73a.57.57,0,0,0,.55.58h.94a.57.57,0,0,0,.55-.58V5.4A.57.57,0,0,0,18.19,4.82ZM4.68,1.48A.79.79,0,0,1,5.44.67h8.12a.79.79,0,0,1,.77.81v.09a.79.79,0,0,1-.77.81H5.44a.79.79,0,0,1-.77-.81ZM4.2,4.64A1.23,1.23,0,0,1,5.36,3.36h8a1.23,1.23,0,0,1,1.17,1.28v6.1A1.23,1.23,0,0,1,13.37,12h-8A1.23,1.23,0,0,1,4.2,10.74Zm.66,12a1.65,1.65,0,0,1,0-3.3,1.65,1.65,0,0,1,0,3.3Zm8.72-.08A1.63,1.63,0,1,1,15.17,15,1.61,1.61,0,0,1,13.57,16.59Z"/></g></g></g></svg>