<svg xmlns="http://www.w3.org/2000/svg" viewBox="0 0 25 25.38"><defs><style>.cls-1{fill:#d8d8d8;stroke-linecap:round;}.cls-1,.cls-2,.cls-3{stroke:#314e55;stroke-linejoin:round;stroke-width:0.75px;}.cls-2,.cls-3{fill:none;}.cls-2{stroke-linecap:square;}.cls-4{font-size:4.28px;font-family:MyriadPro-Regular, Myriad Pro;}.cls-5{letter-spacing:0.01em;}.cls-6{letter-spacing:-0.01em;}.cls-7{letter-spacing:0em;}.cls-8{letter-spacing:-0.04em;}.cls-9{letter-spacing:-0.05em;}.cls-10{letter-spacing:0em;}</style></defs><title>SearchTripsDefault</title><g id="Layer_2" data-name="Layer 2"><g id="Radio_Button_Background" data-name="Radio Button Background"><g id="Searching"><g id="colored"><g id="Searching-2" data-name="Searching"><path class="cls-1" d="M10.92.38a8.57,8.57,0,0,0-8.8,8.31A8.57,8.57,0,0,0,10.92,17a8.57,8.57,0,0,0,8.8-8.31A8.57,8.57,0,0,0,10.92.38Zm0,14.87A6.76,6.76,0,0,1,4,8.69a6.76,6.76,0,0,1,6.95-6.56,6.76,6.76,0,0,1,6.95,6.56A6.76,6.76,0,0,1,10.92,15.25Z"/><path id="Line" class="cls-2" d="M6.75,8.69H8.14"/><path id="Line-Copy" class="cls-2" d="M10,8.69h1.85"/><path id="Line-Copy-2" class="cls-2" d="M13.7,8.69h1.39"/><path id="Line-2" data-name="Line" class="cls-2" d="M17.41,14.81l5.79,5.47"/></g></g><line class="cls-3" x1="18.52" y1="12.29" x2="22.32" y2="15.89"/><line class="cls-3" x1="14.69" y1="16.04" x2="18.5" y2="19.63"/><text class="cls-4" transform="translate(0 24.3) scale(1.18 1)"><tspan class="cls-5">S</tspan><tspan x="2.14" y="0">ea</tspan><tspan class="cls-6" x="6.34" y="0">r</tspan><tspan class="cls-7" x="7.7" y="0">ch</tspan><tspan class="cls-8" x="12" y="0"> </tspan><tspan class="cls-9" x="12.73" y="0">T</tspan><tspan class="cls-10" x="14.66" y="0">r</tspan><tspan x="16.08" y="0">ips</tspan></text></g></g></g></svg>