<svg xmlns="http://www.w3.org/2000/svg" xmlns:xlink="http://www.w3.org/1999/xlink" viewBox="0 0 20 20"><defs><style>.cls-1{fill:none;}.cls-2{clip-path:url(#clip-path);}.cls-3{fill:#040404;}.cls-4{fill:#fbfbfb;}.cls-5{fill:#f8f8f8;}</style><clipPath id="clip-path"><rect class="cls-1" x="-0.17" y="1.08" width="20.67" height="18.17"/></clipPath></defs><title>SHIP</title><g id="TRAM"><g id="SHIP"><g class="cls-2"><polygon class="cls-3" points="15.43 8.61 9.94 7.69 4.35 8.61 4.35 3.55 15.43 3.55 15.43 8.61"/><polygon class="cls-3" points="15.87 14.99 4.11 14.96 2.38 9.55 9.67 8.82 9.68 11.39 10.11 11.4 10.13 8.83 17.33 9.55 15.87 14.99"/><rect class="cls-4" x="5.19" y="4.45" width="9.56" height="2.7"/><rect class="cls-3" x="7.13" y="1.08" width="4.48" height="1.68"/><g class="cls-2"><path class="cls-3" d="M.67,17.88s2.35.4,3.65-.39-.33,1.34,4.53,0-.95,1.19,3.83,0,2.23.48,3.69.1,1.64,1,3.36.35-1,1.42-2.19.19-1.61.68-1.9-.08-2.63.13-2.85-.13-4.53.63-3.72,0-5.4,1.77-4.6,0-2.3,3.56-3.91.24.11-.26.11-.26"/><path class="cls-3" d="M.88,16.26s2.35.4,3.65-.39-.33,1.34,4.53,0-.95,1.19,3.83,0,2.23.48,3.69.1,1.64,1,3.36.35-1,1.42-2.19.19-1.61.68-1.9-.08-2.63.13-2.85-.13-4.53.63-3.72,0-5.4,1.77-4.6,0-2.3,3.56-3.91.24.11-.26.11-.26"/><path class="cls-5" d="M.69,14.3s2.35.51,3.65-.5-.33,1.72,4.53,0-.95,1.54,3.83,0,2.23.62,3.69.12,1.64,1.33,3.36.46-1,1.83-2.19.25-1.61.87-1.9-.1-2.63.17-2.85-.17-4.53.81-3.72,0-5.4,2.28-4.6,0-2.3,4.59-3.91.31.11-.33.11-.33"/></g></g></g></g></svg>