<svg xmlns="http://www.w3.org/2000/svg" viewBox="0 0 16.71 19.68"><defs><style>.cls-1{fill:#0f0403;stroke:#000;stroke-miterlimit:10;stroke-width:0.5px;}</style></defs><title>WALK</title><g id="Layer_2" data-name="Layer 2"><g id="WALK"><path class="cls-1" d="M4.7,12.34l2,2-.56,1.41L2.49,19.19S.93,19.9.28,18.7c-.43-.8,3.4-4,3.4-4Z"/><path class="cls-1" d="M9.11,4.68,6.59,4.61,2.08,7.43l-.72,3.93s.28,1.27,1.68.17-.09-1.7.72-3A2.75,2.75,0,0,1,6,7.17l-.89,3.28.15.88,4.09,3.6a3.84,3.84,0,0,1,.57.62l2.71,3.71A1.23,1.23,0,0,0,14.44,18c0-2.13-6.38-6.1-5.75-6.85a5.26,5.26,0,0,0,.7-2.49l.39-.07s.18,1,.7,1.08,3.57,1.9,4.52,1.57,2.24.26.84-1.18-3.5-.36-4.06-1.54S9.81,4.59,9.11,4.68Z"/><path class="cls-1" d="M10.52,2.09A2,2,0,0,1,8.34,4,2.2,2.2,0,0,1,5.91,2.1,2.2,2.2,0,0,1,8.34.25,2,2,0,0,1,10.52,2.09Z"/></g></g></svg>