<svg xmlns="http://www.w3.org/2000/svg" viewBox="0 0 20 20"><defs><style>.cls-1{fill:#ccc;}</style></defs><title>Clock</title><g id="onlyLeg"><g id="back_in_time" data-name="back in time"><g id="_334-backintime2.png" data-name="334-backintime2.png"><path class="cls-1" d="M9.6,5.43v6.21H5.46V10.09H8.22V5.43ZM.07,9.09A11.09,11.09,0,0,1,1.21,5,10,10,0,0,1,3.83,1.79,8.51,8.51,0,0,1,7.42.13a15.22,15.22,0,0,1,3.76.17A8.48,8.48,0,0,1,14.34,2a9.87,9.87,0,0,1,2.13,2.63,10.35,10.35,0,0,1,1.08,2.76,11.55,11.55,0,0,1,.23,1.24c0,.39.06.75.08,1.07s0,.82,0,1.13h2.1l-3.22,4.4-3-4.4h2c0-.26,0-.6.06-1.05,0-.25,0-.53-.05-.83a8.5,8.5,0,0,0-.16-1,7.91,7.91,0,0,0-.8-2.17,8.1,8.1,0,0,0-1.62-2.13,6.85,6.85,0,0,0-2.43-1.46l-.45-.13-.2-.06H10A6.33,6.33,0,0,0,7.7,2a6.91,6.91,0,0,0-3,1.26A8.17,8.17,0,0,0,2.48,5.87,8.73,8.73,0,0,0,1.8,7.45l-.07.19-.06.26-.12.52c-.06.21-.1.56-.15.83a9.6,9.6,0,0,0,1.3,6.26,8.18,8.18,0,0,0,1.63,2c.27.27.57.46.82.67s.53.33.75.48l.61.33c.18.09.39.22.52.27l.45.16h0a.4.4,0,0,1,.23.48.31.31,0,0,1-.41.22A1.86,1.86,0,0,1,6.87,20a12.32,12.32,0,0,1-1.27-.54c-.26-.14-.55-.28-.86-.46a9.54,9.54,0,0,1-2.87-2.77A10.63,10.63,0,0,1,.41,13.06,11.41,11.41,0,0,1,.07,9.09Z"/></g></g></g></svg>