<svg xmlns="http://www.w3.org/2000/svg" viewBox="0 0 41 41"><defs><style>.cls-1{fill:#b3b3b3;}.cls-2{fill:#29abe2;}.cls-3{fill:#ccc;}</style></defs><title>ShowMore</title><g id="ShowMoreOpened"><rect class="cls-1" x="17.25" y="0.42" width="5.81" height="40.52"/><path class="cls-1" d="M23,17.15H40.38A20.36,20.36,0,0,0,23,.4Z"/><path class="cls-1" d="M17.26,17.15V.49A20.37,20.37,0,0,0,.48,17.15Z"/><path class="cls-1" d="M23,23.92V41A20.36,20.36,0,0,0,40.43,23.92Z"/><path class="cls-1" d="M17.26,23.92H.42a20.37,20.37,0,0,0,16.84,17Z"/><rect class="cls-2" x="0.44" y="17.13" width="39.94" height="6.75"/></g><g id="ShowMore"><path class="cls-2" d="M23,17.08H40.38A20.36,20.36,0,0,0,23,.34Z"/><path class="cls-2" d="M17.26,17.08V.43A20.37,20.37,0,0,0,.48,17.08Z"/><path class="cls-2" d="M23,23.86V41A20.36,20.36,0,0,0,40.43,23.86Z"/><path class="cls-2" d="M17.26,23.86H.42a20.37,20.37,0,0,0,16.84,17Z"/><rect class="cls-3" x="17.19" y="0.44" width="5.87" height="40.53"/><rect class="cls-3" x="16.98" y="0.48" width="6.88" height="39.93" transform="translate(40.86 0.02) rotate(90)"/></g></svg>