<svg xmlns="http://www.w3.org/2000/svg" viewBox="0 0 20 20"><defs><style>.cls-1{fill:#1a1a1a;}</style></defs><title>WALK</title><g id="WALK"><path class="cls-1" d="M1.42,17.56,4.1,15.41a.28.28,0,0,0,.09-.13c.39-1.45.77-2.9,1.18-4.35.28-1,.62-2,.93-3,.1-.3.2-.6.3-.9V7l-.1,0-1,.39a.35.35,0,0,0-.14.1L3.4,9.94a.71.71,0,0,0-.07.1,1.24,1.24,0,0,1-1.09.6A1.46,1.46,0,0,1,1,10.23.62.62,0,0,1,1,9.28,2.21,2.21,0,0,0,1.24,9l2-2.5A1.8,1.8,0,0,1,4.07,6L8.54,4.32a3.63,3.63,0,0,1,2.7,0,4.85,4.85,0,0,1,1.12.62,1.27,1.27,0,0,1,.26.29l2.33,3.19c.07.09.12.18.19.27a.26.26,0,0,0,.13.05L17.11,9,19,9.2c.68.08,1.12.51,1,1a1.24,1.24,0,0,1-1.4.72c-.5,0-1-.12-1.48-.19-1-.14-2-.28-3-.41a1.39,1.39,0,0,1-1-.54l-1-1.36L12,8.28l0,.09c-.25.79-.49,1.58-.75,2.36,0,.07,0,.12.08.18L15,13.56a.93.93,0,0,1,.39.72c0,.19,0,.38,0,.56l0,4.63h-3c0-1.42,0-2.84,0-4.27a.18.18,0,0,0-.1-.16L8.67,12.61l-.13-.08c-.05.2-.1.38-.15.56L7.8,15.41a1.27,1.27,0,0,1-.49.64L4.19,18.5,2.26,20,0,18.67Z"/><path class="cls-1" d="M11.22,3.82C9.65,3.82,8.37,3,8.37,1.91S9.65,0,11.22,0s2.85.85,2.85,1.91S12.79,3.82,11.22,3.82Z"/></g></svg>