<svg xmlns="http://www.w3.org/2000/svg" viewBox="0 0 30 30"><defs><style>.cls-1{fill:#414042;}.cls-2{font-size:42.33px;font-family:MyriadPro-Regular, Myriad Pro;}</style></defs><title>TrafficStatus</title><g id="Radio_Button_Background" data-name="Radio Button Background"><g id="bus-2" data-name="bus"><path class="cls-1" d="M19.55,3.27c0-.1,0-.2,0-.29h0a2.38,2.38,0,0,0-1.67-2h0l-.19,0A40.83,40.83,0,0,0,3.4,1L3.21,1h0A2.38,2.38,0,0,0,1.54,3h0c0,.09,0,.19,0,.29C1.19,5.92.33,13.48.33,15.86v9.28a1.17,1.17,0,0,0,1,1.22h0a.73.73,0,0,1,.57.76v1.27a.88.88,0,0,0,.67.8l.16,0h0a4.85,4.85,0,0,0,1.05.12,4.65,4.65,0,0,0,1.07-.12l.15,0a.89.89,0,0,0,.67-.8V27.06a.72.72,0,0,1,.56-.7h8.58a.72.72,0,0,1,.56.7v1.33a.88.88,0,0,0,.67.8l.15,0a4.64,4.64,0,0,0,1.06.12,4.85,4.85,0,0,0,1.05-.12h0l.16,0a.88.88,0,0,0,.67-.8V27.11a.73.73,0,0,1,.57-.76h0a1.17,1.17,0,0,0,1-1.22V15.86C20.72,13.48,19.86,5.92,19.55,3.27ZM5.19,2.52H15.86a.66.66,0,0,1,.6.7.66.66,0,0,1-.6.7H5.19a.66.66,0,0,1-.6-.7A.65.65,0,0,1,5.19,2.52ZM3.53,22.9a1.46,1.46,0,0,1,0-2.88,1.46,1.46,0,0,1,0,2.88Zm14,0a1.46,1.46,0,0,1,0-2.88,1.46,1.46,0,0,1,0,2.88ZM18.82,15a1.52,1.52,0,0,1-.38,1,1.11,1.11,0,0,1-.82.38H3.43A1.13,1.13,0,0,1,2.61,16a1.52,1.52,0,0,1-.38-1v-.2c0-1.14.61-7.78.61-7.78a2.26,2.26,0,0,1,.41-1A1,1,0,0,1,4,5.63h.75l5.73,0H17A1,1,0,0,1,17.8,6a2.23,2.23,0,0,1,.41,1s.61,6.63.61,7.78Z"/></g><text class="cls-2" transform="translate(22.24 28.74) scale(1.08 1)">!</text></g></svg>