<svg xmlns="http://www.w3.org/2000/svg" viewBox="0 0 40 40"><title>Back</title><g id="Back"><g id="Back-2" data-name="Back"><path d="M22.52,26.2a6.42,6.42,0,0,1,4.49.55c3.7,2,7.56,4.42,9.63,9.87.4,1.06.57,3.25,1.49,3.24.29-8.17-3.3-17.95-7.93-22.19-1.76-1.62-4.15-3.8-6.12-4.51-1.42-.52-4.32-.07-5.14-2.39-.53-1.48-.26-4.56-.17-6.18.07-1.27.5-4.21-.41-4.24S15.2,4,14.47,4.84c-1.71,2-3.57,3.88-5.3,5.83a57.53,57.53,0,0,1-4.49,4.51,15.12,15.12,0,0,0-3.14,3.09c-1.05,1.78-.08,2.58,1,3.85,1.93,2.16,3.91,4.29,6,6.21a53.37,53.37,0,0,1,6.9,8.09c1.13,1.57,2.22,3.12,2.57,1.73a8.46,8.46,0,0,0,.09-2.32c-.11-1.91-.68-7.43.28-9C19.13,25.68,21.56,26.36,22.52,26.2Z"/></g></g></svg>