<svg xmlns="http://www.w3.org/2000/svg" viewBox="0 0 8 20"><title>BUSDEP</title><g id="Layer_2" data-name="Layer 2"><g id="BUSDEP"><path d="M5.4,12.14a1.23,1.23,0,0,1-1.17-1.28V4.76A1.23,1.23,0,0,1,5.4,3.48H7.91v-1H5.47a.79.79,0,0,1-.77-.81V1.59A.79.79,0,0,1,5.47.79H7.91V.12H4.1A1.39,1.39,0,0,0,2.75,1.55V4.4H1.14v.16H.81v.81H.58A.57.57,0,0,0,0,6V9.29a.57.57,0,0,0,.55.58h.94a.57.57,0,0,0,.55-.58V6a.56.56,0,0,0-.53-.58h0V5.14h1.2v12A1.39,1.39,0,0,0,4.1,18.58h.36a.26.26,0,0,1,.25.27v.41a.54.54,0,0,0,.53.55H6.52A.54.54,0,0,0,7,19.26v-.41s0,0,0,0a.19.19,0,0,1,.18-.22h.68V12.14Zm-.51,4.65a1.65,1.65,0,0,1,0-3.3,1.65,1.65,0,0,1,0,3.3Z"/></g></g></svg>