<svg xmlns="http://www.w3.org/2000/svg" viewBox="0 0 20 20"><defs><style>.cls-1{fill:#29abe2;}</style></defs><title>Clock</title><g id="onlyLeg"><g id="back_in_time" data-name="back in time"><g id="_334-backintime2.png" data-name="334-backintime2.png"><path class="cls-1" d="M9.68,5.43v6.21H5.51V10.09H8.29V5.43ZM.07,9.09A11,11,0,0,1,1.22,5,10,10,0,0,1,3.86,1.79,8.61,8.61,0,0,1,7.48.13a15.47,15.47,0,0,1,3.79.17A8.57,8.57,0,0,1,14.46,2a9.89,9.89,0,0,1,2.15,2.63A10.3,10.3,0,0,1,17.7,7.42a11.47,11.47,0,0,1,.23,1.24c0,.39.06.75.08,1.07s0,.82,0,1.13H20.1l-3.25,4.4-3-4.4h2c0-.26,0-.6.06-1.05,0-.25,0-.53-.05-.83a8.44,8.44,0,0,0-.16-1A7.87,7.87,0,0,0,15,5.85a8.1,8.1,0,0,0-1.63-2.13,6.92,6.92,0,0,0-2.45-1.46l-.45-.13-.2-.06h-.14A6.43,6.43,0,0,0,7.77,2a7,7,0,0,0-3,1.26A8.19,8.19,0,0,0,2.5,5.87a8.69,8.69,0,0,0-.69,1.58l-.07.19-.06.26-.12.52c-.06.21-.1.56-.15.83a9.53,9.53,0,0,0,1.31,6.26,8.19,8.19,0,0,0,1.64,2c.27.27.57.46.82.67s.53.33.76.48l.62.33c.18.09.39.22.53.27l.45.16h0a.39.39,0,0,1,.23.48.31.31,0,0,1-.41.22A1.89,1.89,0,0,1,6.93,20a12.47,12.47,0,0,1-1.28-.54c-.26-.14-.55-.28-.87-.46a9.39,9.39,0,0,1-1-.67,9.26,9.26,0,0,1-1.94-2.1A10.59,10.59,0,0,1,.42,13.06,11.32,11.32,0,0,1,.07,9.09Z"/></g></g></g></svg>