<svg xmlns="http://www.w3.org/2000/svg" viewBox="0 0 30 40"><defs><style>.cls-1{fill:gray;}.cls-2{fill:#fbb03b;}.cls-3{fill:#645f66;}.cls-4{fill:#fff;opacity:0.1;}.cls-4,.cls-5{isolation:isolate;}.cls-5{opacity:0.2;}</style></defs><title>Map</title><g id="onlyLeg"><g id="map"><path class="cls-1" d="M15.08,2.61a13.2,13.2,0,0,1,8.74,3.19,10.2,10.2,0,0,1,3.62,7.7,9.93,9.93,0,0,1-1.86,5.75l-.13.2C25.09,20,19.18,29.66,15.27,36a2.44,2.44,0,0,1-.2.28,2.44,2.44,0,0,1-.2-.28C11,29.68,5.06,20,4.65,19.36c0-.07-.08-.13-.13-.2a9.91,9.91,0,0,1-1.81-5.66,10.21,10.21,0,0,1,3.62-7.7,13.2,13.2,0,0,1,8.74-3.19m0-2.31C6.8.29.09,6.2.09,13.49a12,12,0,0,0,2.19,6.87c.08.18,10.28,16.77,10.28,16.77a3.05,3.05,0,0,0,2.51,1.68,3.07,3.07,0,0,0,2.51-1.68S27.75,20.62,27.82,20.47a12,12,0,0,0,2.26-7c0-7.29-6.72-13.2-15-13.2Z"/><ellipse class="cls-2" cx="15.08" cy="14.18" rx="8.88" ry="7.82"/><ellipse class="cls-3" cx="15.08" cy="14.18" rx="5.05" ry="4.45"/><path class="cls-4" d="M4.52,20a1.64,1.64,0,0,1,.13.2c.4.69,6.32,10.32,10.23,16.67a2.44,2.44,0,0,0,.2.28,2.44,2.44,0,0,0,.2-.28c3.92-6.36,9.82-16,10.19-16.59a1.54,1.54,0,0,1,.13-.2,9.93,9.93,0,0,0,1.86-5.75c0-.17,0-.33,0-.5a9.93,9.93,0,0,1-1.85,5.4l-.13.2c-.37.61-6.28,10.23-10.19,16.59a2.44,2.44,0,0,1-.2.28,2.44,2.44,0,0,1-.2-.28C11,29.68,5.06,20,4.65,19.36c0-.07-.08-.13-.13-.2a9.89,9.89,0,0,1-1.79-5.31c0,.17,0,.33,0,.5A9.83,9.83,0,0,0,4.52,20Z"/><path class="cls-4" d="M15.08,1.13c8.09,0,14.68,5.64,15,12.7,0-.12,0-.24,0-.35,0-7.29-6.71-13.2-15-13.2S.09,6.2.09,13.49c0,.12,0,.24,0,.35C.39,6.78,7,1.13,15.08,1.13Z"/><path class="cls-5" d="M15.08,3.45a13.2,13.2,0,0,1,8.74,3.19,10.24,10.24,0,0,1,3.6,7.2c0-.12,0-.23,0-.35a10.21,10.21,0,0,0-3.62-7.7,13.17,13.17,0,0,0-8.74-3.19A13.17,13.17,0,0,0,6.33,5.79a10.2,10.2,0,0,0-3.62,7.7c0,.12,0,.24,0,.35a10.24,10.24,0,0,1,3.6-7.2A13.29,13.29,0,0,1,15.08,3.45Z"/><path class="cls-5" d="M27.81,20.46c-.07.16-10.24,16.67-10.24,16.67a3.05,3.05,0,0,1-2.51,1.68,3.07,3.07,0,0,1-2.51-1.68S2.35,20.54,2.27,20.36A12,12,0,0,1,.1,13.85c0,.17,0,.32,0,.49a12,12,0,0,0,2.19,6.87C2.35,21.39,12.55,38,12.55,38a3.05,3.05,0,0,0,2.51,1.68A3.07,3.07,0,0,0,17.57,38S27.74,21.46,27.81,21.31a12,12,0,0,0,2.26-7c0-.17,0-.33,0-.5A12,12,0,0,1,27.81,20.46Z"/><path class="cls-4" d="M15.08,7.21c4.75,0,8.61,3.27,8.86,7.4,0-.14,0-.28,0-.42,0-4.32-4-7.82-8.88-7.82s-8.88,3.5-8.88,7.82c0,.14,0,.28,0,.42C6.47,10.48,10.33,7.21,15.08,7.21Z"/><path class="cls-5" d="M15.08,22c-4.75,0-8.61-3.27-8.86-7.4,0,.14,0,.28,0,.42,0,4.32,4,7.82,8.88,7.82s8.88-3.5,8.88-7.82c0-.14,0-.28,0-.42C23.69,18.73,19.83,22,15.08,22Z"/><path class="cls-5" d="M15.08,10.57a4.86,4.86,0,0,1,5,4,3.27,3.27,0,0,0,0-.42c0-2.46-2.26-4.45-5.05-4.45S10,11.73,10,14.18a3.18,3.18,0,0,0,0,.42A4.83,4.83,0,0,1,15.08,10.57Z"/><path class="cls-4" d="M15.08,18.63a4.86,4.86,0,0,1-5-4A3.27,3.27,0,0,0,10,15c0,2.46,2.26,4.45,5.05,4.45s5.05-2,5.05-4.45a3.18,3.18,0,0,0,0-.42A4.82,4.82,0,0,1,15.08,18.63Z"/></g></g></svg>