<svg xmlns="http://www.w3.org/2000/svg" viewBox="0 0 8 20"><defs><style>.cls-1,.cls-3{fill:none;}.cls-2{fill:#37a3ff;}.cls-3{stroke:#37a3ff;stroke-linecap:round;stroke-linejoin:round;stroke-width:0;}.cls-4{fill:#01010c;}.cls-5{fill:#c2c0cc;}.cls-6{fill:#01010a;}.cls-7{fill:#07060c;}.cls-8{fill:#e8e8ef;}</style></defs><title>MetroDEP</title><g id="MetroDEP"><path class="cls-1" d="M5.24,4h-.8a.62.62,0,0,0-.16,0,.62.62,0,0,1,.16,0Z"/><path class="cls-1" d="M6.63,4.65l-.12,8.22a.65.65,0,0,1-.36.58.65.65,0,0,0,.36-.58l.12-8.22A.65.65,0,0,0,6.13,4,.66.66,0,0,1,6.63,4.65Z"/><path class="cls-1" d="M2.78,1.25a.7.7,0,0,1,0-.07V1.12l0-.54A.65.65,0,0,1,3.11.05.65.65,0,0,0,2.8.58l0,.54v.06a.7.7,0,0,0,0,.07c0,.1,0,.22,0,.35h0C2.8,1.48,2.79,1.35,2.78,1.25Z"/><rect class="cls-2" x="7.85" y="13.95" width="0.12" height="0.94"/><path class="cls-2" d="M3.69,14.61l0,0c.17.12,0,.07.46.24H7.85v-.94L5.13,14c-.48,0-1-.63-1.05-1.11L2.82,1.75s0,0,0-.06,0-.06,0-.09H1.54c-.19.85-.35,1.71-.5,2.57l1.38,7.11C2.56,12,3.11,14.13,3.69,14.61Z"/><polygon class="cls-2" points="7.85 19.7 7.85 19.74 7.97 19.74 7.97 19.7 7.85 19.7"/><rect class="cls-2" x="7.85" y="16.39" width="0.12" height="1.88"/><path class="cls-2" d="M4.62,19.71c-.11-.49-.07-.21-.16-.66h0v-.11c0-.37,0-.66.34-.66H7.85V16.39l-3.09,0a10.94,10.94,0,0,1-2.48-.29,2.6,2.6,0,0,1-2-2.27c-.09-.82-.18-1.79-.19-2.33l-.1.9c.16,2.7,0,5.12.65,6.51a.89.89,0,0,0,.88.81h6.3v0Z"/><path class="cls-2" d="M5.33,13.53h.6l-.81,0A.63.63,0,0,0,5.33,13.53Z"/><line class="cls-3" x1="0.34" y1="9.55" x2="0.76" y2="6.1"/><path class="cls-2" d="M2.81,1.6h0c0-.12,0-.25,0-.35a.7.7,0,0,1,0-.07V1.12l0-.54A.65.65,0,0,1,3.11.05.68.68,0,0,1,3.31,0C2.17,0,1.81.42,1.55,1.56v0H2.81Z"/><path class="cls-4" d="M4.79,18.27c-.36,0-.34.29-.34.66V19h0c.09.45,0,.18.16.66H7.85V18.27Z"/><rect class="cls-4" x="7.85" y="18.27" width="0.12" height="1.43" transform="translate(-0.04 0.02) rotate(-0.11)"/><path class="cls-5" d="M6.52,12.86l.12-8.22A.66.66,0,0,0,6.13,4,.62.62,0,0,0,6,4H4.43a.62.62,0,0,0-.16,0,.65.65,0,0,0-.5.7l.84,8.18a.67.67,0,0,0,.14.34l.06.08a.64.64,0,0,0,.32.21h0l.81,0h0a.66.66,0,0,0,.23-.07A.65.65,0,0,0,6.52,12.86Z"/><path class="cls-5" d="M7.26,4.14l.08,7.5a.65.65,0,0,0,.51.63V3.48A.66.66,0,0,0,7.26,4.14Z"/><path class="cls-5" d="M7.85,3.48v8.79l.12,0V3.47H7.85Z"/><path class="cls-6" d="M1,4,.76,6.1C.85,5.46.94,4.81,1,4.17Z"/><path class="cls-6" d="M.12,11.31c0,.06,0,.15,0,.24l.22-2Z"/><rect class="cls-6" x="7.85" y="14.89" width="0.12" height="1.5" transform="translate(-0.22 0.11) rotate(-0.8)"/><path class="cls-6" d="M2.28,16.15a10.94,10.94,0,0,0,2.48.29l3.09,0v-1.5H4.19c-.43-.17-.28-.12-.46-.24l0,0c-.58-.48-1.13-2.58-1.27-3.33L1,4.17C.94,4.81.85,5.46.76,6.1L.34,9.55l-.22,2c0,.53.1,1.5.19,2.33A2.6,2.6,0,0,0,2.28,16.15ZM6.53,15a.67.67,0,0,1,0,1.33.67.67,0,0,1,0-1.33Z"/><path class="cls-7" d="M2.8.58l0,.54v.06a.7.7,0,0,0,0,.07c0,.1,0,.22,0,.35l5,0V-.17L4.34-.08H4L3.32,0h0a.68.68,0,0,0-.2.08A.65.65,0,0,0,2.8.58Z"/><polygon class="cls-7" points="7.85 1.58 7.97 1.58 7.97 -0.17 7.85 -0.17 7.85 1.58"/><polygon class="cls-7" points="7.85 13.95 7.97 13.95 7.97 13.57 7.85 13.57 7.85 13.95"/><rect class="cls-7" x="7.85" y="1.58" width="0.12" height="1.82"/><path class="cls-7" d="M5.93,13.51h-.6a.63.63,0,0,1-.2,0H5.07c-.48,0-.62-.07-.62-.56L3.33,4.2c0-.49.4-.74,0-.8H7.85V1.58l-5,0s0,.06,0,.09,0,0,0,.06L4.08,12.86c.06.48.57,1.11,1.05,1.11l2.72,0v-.38Z"/><polygon class="cls-7" points="7.85 1.58 2.81 1.6 2.81 1.6 7.85 1.58 7.85 1.58"/><polygon class="cls-7" points="7.85 1.58 7.97 1.58 7.97 1.58 7.85 1.58 7.85 1.58"/><path class="cls-7" d="M7.85,3.48H8V3.4H7.85Z"/><path class="cls-7" d="M7.85,13.57H8V12.29l-.12,0Z"/><path class="cls-7" d="M3.33,4.2l1.13,8.73c0,.49.14.56.62.56h.05a.64.64,0,0,1-.32-.21l-.06-.08a.67.67,0,0,1-.14-.34L3.77,4.68a.65.65,0,0,1,.5-.7.62.62,0,0,1,.16,0H6a.62.62,0,0,1,.14,0,.65.65,0,0,1,.5.64l-.12,8.22a.65.65,0,0,1-.36.58.66.66,0,0,1-.23.07l1.92.06v-1.3a.65.65,0,0,1-.51-.63l-.08-7.5a.66.66,0,0,1,.6-.66V3.4H3.32C3.73,3.46,3.33,3.71,3.33,4.2Z"/><ellipse class="cls-8" cx="6.53" cy="15.71" rx="0.6" ry="0.67"/></g></svg>