<svg xmlns="http://www.w3.org/2000/svg" viewBox="0 0 41 110"><defs><style>.cls-1{fill:#29abe2;}.cls-2,.cls-6{fill:none;}.cls-3{fill:#666;stroke-miterlimit:10;}.cls-3,.cls-6{stroke:#666;}.cls-4{fill:lime;}.cls-5{fill:red;}</style></defs><title>middleLeg</title><g id="TRAM"><rect class="cls-1" x="0.67" width="40.67" height="109.67"/></g><g id="Leg_Mid" data-name="Leg Mid"><rect class="cls-2" x="14.73" y="0.4" width="3.22" height="109.86"/><rect class="cls-3" x="15" y="-0.17" width="2.83" height="8.5"/><rect class="cls-3" x="14.92" y="101.58" width="2.83" height="8.5"/><rect class="cls-3" x="9.04" width="2.71" height="29.54"/><rect class="cls-3" x="8.96" y="80.78" width="2.67" height="29.17"/><rect class="cls-3" x="17.71" y="6" width="2.83" height="8.5" transform="translate(39.9 3.97) rotate(135)"/><rect class="cls-3" x="24.87" y="4.79" width="2.83" height="8.5" transform="translate(51.28 -3.16) rotate(135)"/><rect class="cls-3" x="17.54" y="96.13" width="2.83" height="8.5" transform="translate(86.64 23.86) rotate(52.19)"/><rect class="cls-3" x="25.08" y="98.25" width="2.83" height="8.5" transform="translate(91.23 18.72) rotate(52.19)"/><ellipse class="cls-4" cx="26.61" cy="17.36" rx="1.89" ry="2.13"/><ellipse class="cls-5" cx="32.91" cy="17.36" rx="1.89" ry="2.13"/><ellipse class="cls-4" cx="25.67" cy="94.38" rx="1.89" ry="2.13"/><ellipse class="cls-5" cx="31.96" cy="94.38" rx="1.89" ry="2.13"/><ellipse class="cls-4" cx="6.34" cy="21.23" rx="1.64" ry="1.83"/><ellipse class="cls-5" cx="3.97" cy="85.39" rx="2.03" ry="2.26"/><line class="cls-6" x1="6.96" y1="24.13" x2="6.96" y2="86.02"/><line class="cls-6" x1="3.28" y1="20.25" x2="3.28" y2="82.14"/></g></svg>