<svg xmlns="http://www.w3.org/2000/svg" viewBox="0 0 76 144"><defs><style>.cls-1{fill:#fff;}.cls-2,.cls-3,.cls-4{fill:none;stroke-miterlimit:10;stroke-width:4px;}.cls-2,.cls-4{stroke:#f46c83;}.cls-3{stroke:#fff;}.cls-4{opacity:0.12;}</style></defs><title>Middle</title><g id="LastLeg"><rect class="cls-1" x="75.86" width="76" height="144"/><rect class="cls-1" x="0.06" width="76" height="144"/><rect class="cls-1" x="-75.69" width="76" height="144"/><rect class="cls-2" x="-68.19" y="7.46" width="67.06" height="128"/><rect class="cls-3" x="77.61" y="11.46" width="0.95" height="120" transform="translate(156.16 142.92) rotate(180)"/><rect class="cls-2" x="2.78" y="7.4" width="71.31" height="128" transform="translate(76.86 142.79) rotate(180)"/><rect class="cls-3" x="2.64" y="11.4" width="0.93" height="120" transform="translate(6.21 142.79) rotate(180)"/><rect class="cls-3" x="73.53" y="11.5" width="0.55" height="119.8" transform="translate(147.61 142.79) rotate(180)"/><line class="cls-4" x1="-1.64" y1="11.42" x2="-1.64" y2="131.42"/><line class="cls-4" x1="2.9" y1="9.92" x2="2.9" y2="132.92"/><rect class="cls-3" x="-2.11" y="11.4" width="0.95" height="120"/><line class="cls-4" x1="73.81" y1="9.42" x2="73.81" y2="133.42"/><line class="cls-4" x1="77.86" y1="9.47" x2="77.86" y2="133.47"/></g></svg>