<svg xmlns="http://www.w3.org/2000/svg" xmlns:xlink="http://www.w3.org/1999/xlink" viewBox="0 0 8 20"><defs><style>.cls-1{fill:none;}.cls-2{clip-path:url(#clip-path);}.cls-3{fill:#040404;}.cls-4{fill:#fbfbfb;}.cls-5{fill:#f8f8f8;}</style><clipPath id="clip-path"><rect class="cls-1" y="-0.06" width="8" height="20"/></clipPath></defs><title>SHIPDEP</title><g id="Layer_2" data-name="Layer 2"><g id="SHIPDEP"><g class="cls-2"><polygon class="cls-3" points="3.49 2.65 3.49 8.22 7.83 7.21 8 7.25 8 6.62 4.14 6.62 4.14 3.64 8 3.64 8 2.65 3.49 2.65"/><g class="cls-2"><path class="cls-3" d="M7.17,14.55c.33-.47-.86.25-2,.67H8v-.42c-.63.11-1.1.13-.83-.26"/><path class="cls-3" d="M3.59,14.51c.24-1,0-.46-.39.28l.1.43h.3a1.07,1.07,0,0,1,0-.71"/><path class="cls-3" d="M3.48,13.93c1-1.12-.26,1.9,3.52,0a10.65,10.65,0,0,1,1-.47v-5H8l0,2.83H7.63V8.45L2,9.25l1.13,5a1.93,1.93,0,0,0,.39-.33"/><rect class="cls-4" x="4.14" y="3.64" width="3.86" height="2.98"/><rect class="cls-3" x="5.64" y="-0.06" width="2.36" height="1.85"/><path class="cls-3" d="M7,18c-3.78,1.51-2.5-.83-3.52,0a3.73,3.73,0,0,1-2.84.43s-1.33-3.37-.09.28,3.66-2.25,3-.27,4.2-.66,3.58,0c-.27.3.21.29.85.2V17.6c-.24.07-.57.19-1,.37"/><path class="cls-3" d="M7.15,16.18c-3.78,1.51-2.5-.83-3.52,0a3.73,3.73,0,0,1-2.84.43s-1.33-3.37-.09.28,3.66-2.25,3-.27,4.2-.66,3.58,0c-.25.27.13.29.68.22v-1c-.22.07-.5.17-.85.31"/><path class="cls-5" d="M7.17,14.55c-.27.38.2.37.83.26V13.42a10.65,10.65,0,0,0-1,.47c-3.78,1.94-2.5-1.07-3.52,0a1.93,1.93,0,0,1-.39.33,3.33,3.33,0,0,1-2.45.22s-1.33-4.34-.09.37c.77,2.9,2,1.13,2.65-.06.42-.75.63-1.27.39-.28a1.07,1.07,0,0,0,0,.71c.2.42.89.28,1.61,0,1.1-.41,2.29-1.14,2-.67"/></g></g></g></g></svg>