<svg xmlns="http://www.w3.org/2000/svg" xmlns:xlink="http://www.w3.org/1999/xlink" viewBox="0 0 20.63 18.17"><defs><style>.cls-1{fill:none;}.cls-2{clip-path:url(#clip-path);}.cls-3{fill:#040404;}.cls-4{fill:#fbfbfb;}.cls-5{fill:#f8f8f8;}</style><clipPath id="clip-path" transform="translate(-0.04 0)"><rect class="cls-1" width="20.67" height="18.17"/></clipPath></defs><title>SHIP</title><g id="Layer_2" data-name="Layer 2"><g id="TRAM"><g id="SHIP"><g class="cls-2"><polygon class="cls-3" points="15.56 7.53 10.07 6.6 4.48 7.53 4.48 2.47 15.56 2.47 15.56 7.53"/><polygon class="cls-3" points="16 13.91 4.24 13.88 2.51 8.46 9.8 7.74 9.81 10.31 10.24 10.31 10.27 7.74 17.46 8.46 16 13.91"/><rect class="cls-4" x="5.32" y="3.37" width="9.56" height="2.7"/><rect class="cls-3" x="7.26" width="4.48" height="1.68"/><g class="cls-2"><path class="cls-3" d="M.84,16.8s2.35.4,3.65-.39-.33,1.34,4.53,0-.95,1.19,3.83,0,2.23.48,3.69.1,1.64,1,3.36.35-1,1.42-2.19.19-1.61.68-1.9-.08-2.63.13-2.85-.13-4.53.63-3.72,0-5.4,1.77-4.6,0-2.3,3.56-3.91.24.11-.26.11-.26" transform="translate(-0.04 0)"/><path class="cls-3" d="M1.06,15.17s2.35.4,3.65-.39-.33,1.34,4.53,0-.95,1.19,3.83,0,2.23.48,3.69.1,1.64,1,3.36.35-1,1.42-2.19.19-1.61.68-1.9-.08-2.63.13-2.85-.13-4.53.63-3.72,0-5.4,1.77-4.6,0-2.3,3.56-3.91.24.11-.26.11-.26" transform="translate(-0.04 0)"/><path class="cls-5" d="M.86,13.21s2.35.51,3.65-.5-.33,1.72,4.53,0-.95,1.54,3.83,0,2.23.62,3.69.12,1.64,1.33,3.36.46-1,1.83-2.19.25-1.61.87-1.9-.1-2.63.17-2.85-.17-4.53.81-3.72,0-5.4,2.28-4.6,0-2.3,4.59-3.91.31.11-.33.11-.33" transform="translate(-0.04 0)"/></g></g></g></g></g></svg>