<svg xmlns="http://www.w3.org/2000/svg" xmlns:xlink="http://www.w3.org/1999/xlink" viewBox="0 0 8 20"><defs><style>.cls-1,.cls-4{fill:none;}.cls-2{clip-path:url(#clip-path);}.cls-3{fill:#f9f9f9;}.cls-4{stroke:#000;stroke-miterlimit:10;}.cls-5{fill:#0b0b0c;}.cls-6{fill:#babacc;}.cls-7{fill:#01030a;}.cls-8{fill:#0b0b0b;}.cls-9{fill:#009aed;}.cls-10{fill:#110e09;}.cls-11{fill:#e4e4ef;}.cls-12{fill:#f2b111;}.cls-13{fill:#00080a;}</style><clipPath id="clip-path"><rect class="cls-1" x="-0.04" y="0.04" width="8" height="20"/></clipPath></defs><title>TRAINDEP</title><g id="Layer_2" data-name="Layer 2"><g id="TRAINDEP"><g class="cls-2"><g class="cls-2"><path class="cls-3" d="M6.44,19.26a.65.65,0,0,1-.65-.65v-.82a.65.65,0,0,1,.65-.65H7.93v-.48c-2.92-.12-4.11,0-6-2a4.14,4.14,0,0,1-.69-1.8A12.7,12.7,0,0,1,.87,7.89a9.83,9.83,0,0,1,.57-2.52S2,9.29,2.67,12l.05.09a8.16,8.16,0,0,1,.32,1c0,.16.12.42.17.65a2.26,2.26,0,0,0,.4.7,4.33,4.33,0,0,0,2.47,1,14.49,14.49,0,0,0,1.84.21V14.23l-1.48,0a2.25,2.25,0,0,1-1.89-1h0a.59.59,0,0,1-.1-.26L3.27,4.39a2.18,2.18,0,0,1,.82-2,4.53,4.53,0,0,1,.46-.31,5.11,5.11,0,0,1,2.55-.7h.83V.06H7.1C7,.17,2.83-.14,1.34,5c0,0-.39,1-.39,1L0,13.28v.1a7.53,7.53,0,0,0,0,1.43l.14,1.41L.49,18l.53,1A4.29,4.29,0,0,0,2.63,20l5.31-.09v-.66Z"/><path class="cls-4" d="M6.44,19.26a.65.65,0,0,1-.65-.65v-.82a.65.65,0,0,1,.65-.65H7.93v-.48c-2.92-.12-4.11,0-6-2a4.14,4.14,0,0,1-.69-1.8A12.7,12.7,0,0,1,.87,7.89a9.83,9.83,0,0,1,.57-2.52S2,9.29,2.67,12l.05.09a8.16,8.16,0,0,1,.32,1c0,.16.12.42.17.65a2.26,2.26,0,0,0,.4.7,4.33,4.33,0,0,0,2.47,1,14.49,14.49,0,0,0,1.84.21V14.23l-1.48,0a2.25,2.25,0,0,1-1.89-1h0a.59.59,0,0,1-.1-.26L3.27,4.39a2.18,2.18,0,0,1,.82-2,4.53,4.53,0,0,1,.46-.31,5.11,5.11,0,0,1,2.55-.7h.83V.06H7.1C7,.17,2.83-.14,1.34,5c0,0-.39,1-.39,1L0,13.28v.1a7.53,7.53,0,0,0,0,1.43l.14,1.41L.49,18l.53,1A4.29,4.29,0,0,0,2.63,20l5.31-.09v-.66Z"/><path class="cls-5" d="M4.55,2.06a4.55,4.55,0,0,0-.46.31,2.18,2.18,0,0,0-.82,2l1.19,8.66a.59.59,0,0,0,.1.26h0a2.25,2.25,0,0,0,1.89,1l1.48,0v-3.4H7.88l0,.05L7.64,11l-.24,0-.08-.15H5.89V11l-.22,0,0-.19H5.46v.06a.7.7,0,0,1-.69-.09,1.72,1.72,0,0,1-.61-.16c-.09-.1-.59-4.58-.72-5.84a.9.9,0,0,1,.22-.69A2.63,2.63,0,0,1,5.33,3.3c.54-.07,1.55-.11,2.6-.12V1.36H7.1a5.11,5.11,0,0,0-2.55.7"/><path class="cls-6" d="M3.67,4.13a.9.9,0,0,0-.22.69c.14,1.26.63,5.74.72,5.84a1.72,1.72,0,0,0,.61.16.9.9,0,0,1-.26-.47,14.86,14.86,0,0,1-.78-5.6C3.86,3.61,5,4,5,4l.44,6.88h.21c.1-1,.56-5.48.41-5.53s0-.27,0-.27a5.76,5.76,0,0,1,.11,2.46c-.24,1.3.05.43.05.43l-.05.49,1.25,2.3h.19L6.42,8.29,6.5,8l1.38,2.84h.05V3.18c-1.05,0-2.06,0-2.6.12a2.63,2.63,0,0,0-1.67.83"/><path class="cls-6" d="M5.89,10.85H7.31L6.09,8.54Z"/><path class="cls-7" d="M6.42,8.29l1.25,2.43H7.47L6.23,8.43l.05-.49s-.3.86-.05-.43a5.76,5.76,0,0,0-.11-2.46s-.19.22,0,.27-.31,4.53-.41,5.53l0,.19.22,0v-.17l.2-2.32,1.22,2.3.08.15.24,0,.27-.08,0-.05L6.5,8Z"/><path class="cls-8" d="M3.73,4.76a14.86,14.86,0,0,0,.78,5.6.9.9,0,0,0,.26.47.7.7,0,0,0,.69.09v-.06L5,4s-1.16-.37-1.29.79"/><path class="cls-9" d="M3.63,14.49a2.26,2.26,0,0,1-.4-.7l.12.49a.13.13,0,0,1,0,0v.09a.13.13,0,0,1-.13.13H2.87l-.54,0-.47-.29a3.42,3.42,0,0,1-.54-1.58,1.16,1.16,0,0,1,.87-.92.63.63,0,0,1,.49.25C2,9.29,1.44,5.37,1.44,5.37A9.83,9.83,0,0,0,.87,7.89a12.7,12.7,0,0,0,.41,4.93A4.14,4.14,0,0,0,2,14.63c1.86,2.06,3,1.9,6,2v-.94a14.49,14.49,0,0,1-1.84-.21,4.33,4.33,0,0,1-2.47-1"/><path class="cls-10" d="M2.18,11.77h0a1.16,1.16,0,0,0-.87.92,3.42,3.42,0,0,0,.54,1.58l.47.29.54,0h.34a.13.13,0,0,0,.13-.13v-.09a.13.13,0,0,0,0,0l-.12-.49c-.06-.23-.12-.49-.17-.65a8.16,8.16,0,0,0-.32-1L2.67,12a.63.63,0,0,0-.49-.25m.23,1.63a.4.4,0,1,1-.42.4.39.39,0,0,1,.24-.36H2.15a.53.53,0,0,1,0-1.05.5.5,0,0,1,.47.53.53.53,0,0,1-.29.49h.08"/><path class="cls-11" d="M2.63,12.93a.5.5,0,0,0-.47-.53.53.53,0,0,0,0,1.05h.08l.1,0a.53.53,0,0,0,.29-.49"/><path class="cls-12" d="M2,13.8a.42.42,0,1,0,.42-.4H2.33l-.1,0A.39.39,0,0,0,2,13.8"/><path class="cls-13" d="M5.79,17.79v.82a.65.65,0,0,0,.65.65H7.93V17.14H6.44a.65.65,0,0,0-.65.65"/></g></g></g></g></svg>