<svg xmlns="http://www.w3.org/2000/svg" xmlns:xlink="http://www.w3.org/1999/xlink" viewBox="0 0 23.34 23.21"><defs><style>.cls-1,.cls-13,.cls-4,.cls-6,.cls-9{fill:none;}.cls-2{clip-path:url(#clip-path);}.cls-3{fill:#f9f9f9;}.cls-4{stroke:#060707;stroke-width:4px;}.cls-13,.cls-4,.cls-6,.cls-9{stroke-miterlimit:10;}.cls-5{fill:#0b0b0c;}.cls-6{stroke:#000105;}.cls-7{fill:#babacc;}.cls-8{fill:#01030a;}.cls-9{stroke:#02050f;}.cls-10{fill:#0b0b0b;}.cls-11{fill:#009aed;}.cls-12{fill:#110e09;}.cls-13{stroke:#010105;}.cls-14{fill:#0a0a09;}.cls-15{fill:#e4e4ef;}.cls-16{fill:#f2f2f4;}.cls-17{fill:#f2b111;}.cls-18{fill:#00080a;}</style><clipPath id="clip-path" transform="translate(1.89 1.9)"><rect class="cls-1" width="19.56" height="19.42"/></clipPath></defs><title>TRAIN</title><g id="Layer_2" data-name="Layer 2"><g id="Layer_2-2" data-name="Layer 2"><g id="Train_Latest" data-name="Train Latest"><g class="cls-2"><g class="cls-2"><path class="cls-3" d="M13,.11H7.46a6.34,6.34,0,0,0-6,4.78s-.4,1-.41,1l-1,6.93v.09a6.76,6.76,0,0,0,0,1.38L.3,15.67l.34,1.69.55.92a4.47,4.47,0,0,0,1.65,1L17,19.08A7.13,7.13,0,0,0,19.42,13l-.62-6.79-.49-2c-.11-.25-.31-.49-.47-.79L16.79,1.8c-.45-.39-.31-.39-.64-.59A10.59,10.59,0,0,0,13,.11" transform="translate(1.89 1.9)"/><path class="cls-4" d="M13,.11H7.46a6.34,6.34,0,0,0-6,4.78s-.4,1-.41,1l-1,6.93v.09a6.76,6.76,0,0,0,0,1.38L.3,15.67l.34,1.69.55.92a4.47,4.47,0,0,0,1.65,1L17,19.08A7.13,7.13,0,0,0,19.42,13l-.62-6.79-.49-2c-.11-.25-.31-.49-.47-.79L16.79,1.8c-.45-.39-.31-.39-.64-.59A10.59,10.59,0,0,0,13,.11Z" transform="translate(1.89 1.9)"/><path class="cls-5" d="M11.9,13.67l-5.11.11a2.38,2.38,0,0,1-2-.92h0a.54.54,0,0,1-.11-.25L3.5,4.28a2,2,0,0,1,.84-1.95A4.72,4.72,0,0,1,4.82,2a5.57,5.57,0,0,1,2.64-.68l4.7,0c1.54-.07,4.24,1.36,3.59,2.9l-2.62,8.09c-.06.52-.86,1.35-1.23,1.35" transform="translate(1.89 1.9)"/><path class="cls-6" d="M11.9,13.67l-5.11.11a2.38,2.38,0,0,1-2-.92h0a.54.54,0,0,1-.11-.25L3.5,4.28a2,2,0,0,1,.84-1.95A4.72,4.72,0,0,1,4.82,2a5.57,5.57,0,0,1,2.64-.68l4.7,0c1.54-.07,4.24,1.36,3.59,2.9l-2.62,8.09C13.07,12.84,12.27,13.67,11.9,13.67Z" transform="translate(1.89 1.9)"/><path class="cls-7" d="M3.68,4.69A.83.83,0,0,1,3.91,4a2.78,2.78,0,0,1,1.72-.8c1.51-.19,6.52-.11,6.52-.11a9.19,9.19,0,0,1,1.51.08,3.19,3.19,0,0,1,1.2.65A.88.88,0,0,1,15,4a.82.82,0,0,1,.14.71L13.81,9.63a.86.86,0,0,1-.3.45,1.9,1.9,0,0,1-.55.35c-.18,0-6.65.07-7.56.08H5.18a2.4,2.4,0,0,1-.75-.17c-.1-.09-.61-4.41-.75-5.62" transform="translate(1.89 1.9)"/><path class="cls-6" d="M3.68,4.69A.83.83,0,0,1,3.91,4a2.78,2.78,0,0,1,1.72-.8c1.51-.19,6.52-.11,6.52-.11a9.19,9.19,0,0,1,1.51.08,3.19,3.19,0,0,1,1.2.65A.88.88,0,0,1,15,4a.82.82,0,0,1,.14.71L13.81,9.63a.86.86,0,0,1-.3.45,1.9,1.9,0,0,1-.55.35c-.18,0-6.65.07-7.56.08H5.18a2.4,2.4,0,0,1-.75-.17C4.33,10.22,3.82,5.9,3.68,4.69Z" transform="translate(1.89 1.9)"/><path class="cls-8" d="M7.76,10.63,6.42,8.27l-.22,2.39-.22,0s.62-5.46.45-5.51,0-.26,0-.26a5.19,5.19,0,0,1,.11,2.37c-.25,1.25.06.42.06.42l-.06.47,1.29,2.21H8L6.75,8l.08-.29,1.45,2.78L8,10.61Z" transform="translate(1.89 1.9)"/><path class="cls-9" d="M7.76,10.63,6.42,8.27l-.22,2.39-.22,0s.62-5.46.45-5.51,0-.26,0-.26a5.19,5.19,0,0,1,.11,2.37c-.25,1.25.06.42.06.42l-.06.47,1.29,2.21H8L6.75,8l.08-.29,1.45,2.78L8,10.61Z" transform="translate(1.89 1.9)"/><path class="cls-10" d="M12.49,3.43s2-.36,2.21.78c.31,1.64-.25,3.21-1.34,5.54-.4.86-1.63.55-1.63.55Z" transform="translate(1.89 1.9)"/><path class="cls-11" d="M1.61,5.22S2.75,13,3.87,14a4.64,4.64,0,0,0,2.55,1,17.32,17.32,0,0,0,4.67.11c2-.16,2.85-.58,4.56-4.25A25.24,25.24,0,0,0,18,4c.08-.36.7,2.64.7,2.64a30.15,30.15,0,0,1-1.81,5.59,6.56,6.56,0,0,1-2.13,2.5c-.67.5-1.68,1.55-6,1.35-3.36-.16-4.61.11-6.62-2a3.83,3.83,0,0,1-.71-1.74A11.43,11.43,0,0,1,1,7.64a9,9,0,0,1,.59-2.43" transform="translate(1.89 1.9)"/><path class="cls-12" d="M2.38,11.38h0a.65.65,0,0,1,.56.33,7.47,7.47,0,0,1,.33,1c.1.31.28,1,.3,1.1a.12.12,0,0,1,0,0v.09a.13.13,0,0,1-.14.13H3.09l-.56,0L2,13.79a3.16,3.16,0,0,1-.56-1.53c0-.33.54-.87.89-.88" transform="translate(1.89 1.9)"/><path class="cls-13" d="M2.38,11.38h0a.65.65,0,0,1,.56.33,7.47,7.47,0,0,1,.33,1c.1.31.28,1,.3,1.1a.12.12,0,0,1,0,0v.09a.13.13,0,0,1-.14.13H3.09l-.56,0L2,13.79a3.16,3.16,0,0,1-.56-1.53C1.46,11.93,2,11.39,2.38,11.38Z" transform="translate(1.89 1.9)"/><path class="cls-14" d="M13.68,14.13s1.59.24,1.79,0A7.72,7.72,0,0,0,17,12c.1-.54,0-.26-.27-.34a3.29,3.29,0,0,0-1.33,0c-.22.1-1.44,2.57-1.72,2.5" transform="translate(1.89 1.9)"/><path class="cls-13" d="M13.68,14.13s1.59.24,1.79,0A7.72,7.72,0,0,0,17,12c.1-.54,0-.26-.27-.34a3.29,3.29,0,0,0-1.33,0C15.17,11.74,14,14.21,13.68,14.13Z" transform="translate(1.89 1.9)"/><path class="cls-15" d="M2.84,12.49A.49.49,0,1,1,2.35,12a.5.5,0,0,1,.49.51" transform="translate(1.89 1.9)"/><ellipse class="cls-13" cx="4.23" cy="14.39" rx="0.49" ry="0.51"/><path class="cls-16" d="M16.26,12.52a.49.49,0,1,1-.49-.51.5.5,0,0,1,.49.51" transform="translate(1.89 1.9)"/><ellipse class="cls-13" cx="17.66" cy="14.41" rx="0.49" ry="0.51"/><path class="cls-17" d="M15.75,13.42a.43.43,0,1,1-.43-.38.41.41,0,0,1,.43.38" transform="translate(1.89 1.9)"/><ellipse class="cls-13" cx="17.21" cy="15.32" rx="0.43" ry="0.38"/><path class="cls-17" d="M3.05,13.33a.41.41,0,0,1-.43.38.38.38,0,1,1,0-.76.41.41,0,0,1,.43.38" transform="translate(1.89 1.9)"/><ellipse class="cls-13" cx="4.51" cy="15.23" rx="0.43" ry="0.38"/><path class="cls-18" d="M11.53,18.59H6.78A.65.65,0,0,1,6.11,18v-.79a.65.65,0,0,1,.67-.62h4.75a.65.65,0,0,1,.67.62V18a.65.65,0,0,1-.67.62" transform="translate(1.89 1.9)"/><path class="cls-4" d="M11.53,18.59H6.78A.65.65,0,0,1,6.11,18v-.79a.65.65,0,0,1,.67-.62h4.75a.65.65,0,0,1,.67.62V18A.65.65,0,0,1,11.53,18.59Z" transform="translate(1.89 1.9)"/></g></g></g></g></g></svg>