<svg xmlns="http://www.w3.org/2000/svg" xmlns:xlink="http://www.w3.org/1999/xlink" viewBox="0 0 28.81 24.42"><defs><style>.cls-1,.cls-13,.cls-19,.cls-4{fill:none;}.cls-2{clip-path:url(#clip-path);}.cls-3{fill:#f4efef;}.cls-13,.cls-19,.cls-4{stroke:#000;stroke-miterlimit:10;}.cls-4{stroke-width:3px;}.cls-5{fill:#28a8ff;}.cls-6{fill:#010200;}.cls-7{fill:#001e25;}.cls-8{fill:#fff;}.cls-9{fill:#f7f5f5;}.cls-10{fill:#d3792f;}.cls-11{fill:#dd8717;}.cls-12{fill:#ed3b24;}.cls-14{fill:#2b74ff;}.cls-15{fill:#1740ff;}.cls-16{fill:#1b5bc1;}.cls-17{fill:#070100;}.cls-18{fill:#0a0201;}.cls-19{stroke-width:6px;}.cls-20{fill:#050300;}</style><clipPath id="clip-path" transform="translate(1.42 3.22)"><rect class="cls-1" width="19.89" height="19.77"/></clipPath></defs><title>TRAM</title><g id="Layer_2" data-name="Layer 2"><g id="TRAM"><g id="TRAM-2" data-name="TRAM"><g class="cls-2"><g class="cls-2"><path class="cls-3" d="M14.28,10.15l-1,.07-7.09,0-1.27,0a1.27,1.27,0,0,1-.73-.52L4.11,8.48A3.29,3.29,0,0,1,4.1,8l.13-3.71c.12-.06.26-.87.75-1.26l.95-.14h.25l7,0h.16l.37,0a1,1,0,0,1,.78.47,2,2,0,0,1,.28.52l.15.33c0,.06.1.19.1.26,0,.56,0,3.78,0,3.93l-.16,1.13c0,.11-.36.53-.58.53" transform="translate(1.42 3.22)"/><path class="cls-4" d="M14.43,19.49l-1,.15-7.32.05-1.31-.08c-.23,0-.76-.95-.76-1.2l-.1-2.77q0-.5,0-1l.24-10C4.17,4.39,4.75,3,5,3l.84-.11.26,0L13.29,3h.16l.77.09c.23,0,.89,1.63.89,1.89l.11,9.55q0,.58,0,1.16L15,18.27C15,18.52,14.65,19.49,14.43,19.49Z" transform="translate(1.42 3.22)"/><path class="cls-5" d="M14.17,15.89s-.07,0-.09,0-6,.24-8.91,0c-.53,0-1-.17-1.15-.45a30.41,30.41,0,0,1,0-3.84c0-.62.1-3.56.09-4.26l.16,1.46a3,3,0,0,0,.15.48c.11.26.22.57.36.64a.93.93,0,0,0,.39.09l8.62.1c.2,0,.39.16.57-.22a19.36,19.36,0,0,0,.82-2.39c0-.1,0,.82,0,2.47,0,.94.11,1.85,0,2.68l0,.19c0,.38,0,1.92,0,2.16a1,1,0,0,1-1,.86" transform="translate(1.42 3.22)"/><path class="cls-6" d="M13.16,4.35,6,4.25a12.3,12.3,0,0,0-1.72,3l.16,6.71a2.24,2.24,0,0,0,.77,1.72,1.17,1.17,0,0,0,.74.25l7.6-.09c.35,0,1-.82,1-1.25,0,0,0-.1,0-.15l.35-6.69A1.43,1.43,0,0,0,14.76,7a12.35,12.35,0,0,0-1.6-2.68" transform="translate(1.42 3.22)"/><path class="cls-4" d="M13.16,4.35,6,4.25a12.3,12.3,0,0,0-1.72,3l.16,6.71a2.24,2.24,0,0,0,.77,1.72,1.17,1.17,0,0,0,.74.25l7.6-.09c.35,0,1-.82,1-1.25,0,0,0-.1,0-.15l.35-6.69A1.43,1.43,0,0,0,14.76,7,12.35,12.35,0,0,0,13.16,4.35Z" transform="translate(1.42 3.22)"/><path class="cls-7" d="M13.37,15l-7.07.1c-.67,0-1.17-1.35-1.15-1.89L5,5.64c0-.25,0-.23.23-.23l8.3-.05c.23,0,.32,0,.32.26l0,7.65A3.06,3.06,0,0,1,13.37,15" transform="translate(1.42 3.22)"/><path class="cls-4" d="M13.37,15l-7.07.1c-.67,0-1.17-1.35-1.15-1.89L5,5.64c0-.25,0-.23.23-.23l8.3-.05c.23,0,.32,0,.32.26l0,7.65A3.06,3.06,0,0,1,13.37,15Z" transform="translate(1.42 3.22)"/><path class="cls-8" d="M6.16,14.64h0a.45.45,0,0,1-.45-.44v-.11a.45.45,0,0,1,.89,0v.11a.45.45,0,0,1-.45.44" transform="translate(1.42 3.22)"/><path class="cls-4" d="M6.16,14.64h0a.45.45,0,0,1-.45-.44v-.11a.45.45,0,0,1,.89,0v.11A.45.45,0,0,1,6.16,14.64Z" transform="translate(1.42 3.22)"/><path class="cls-8" d="M12.87,14.73h0a.45.45,0,0,1-.45-.44v-.11a.45.45,0,0,1,.89,0v.11a.45.45,0,0,1-.45.44" transform="translate(1.42 3.22)"/><path class="cls-4" d="M12.87,14.73h0a.45.45,0,0,1-.45-.44v-.11a.45.45,0,0,1,.89,0v.11A.45.45,0,0,1,12.87,14.73Z" transform="translate(1.42 3.22)"/><path class="cls-9" d="M13,13.19H5.81a.6.6,0,0,1-.6-.59V6.67a.6.6,0,0,1,.6-.59H13a.6.6,0,0,1,.6.59V12.6a.6.6,0,0,1-.6.59" transform="translate(1.42 3.22)"/><path class="cls-4" d="M13,13.19H5.81a.6.6,0,0,1-.6-.59V6.67a.6.6,0,0,1,.6-.59H13a.6.6,0,0,1,.6.59V12.6A.6.6,0,0,1,13,13.19Z" transform="translate(1.42 3.22)"/><path class="cls-10" d="M5.69,15.29A.25.25,0,1,1,5.44,15a.27.27,0,0,1,.25.28" transform="translate(1.42 3.22)"/><path class="cls-11" d="M14,15.32A.25.25,0,1,1,13.8,15a.27.27,0,0,1,.25.28" transform="translate(1.42 3.22)"/><path class="cls-12" d="M6.36,17.92a.25.25,0,1,1-.25-.28.27.27,0,0,1,.25.28" transform="translate(1.42 3.22)"/><path class="cls-12" d="M13.18,17.95a.25.25,0,1,1-.25-.28.27.27,0,0,1,.25.28" transform="translate(1.42 3.22)"/><path d="M8.37,13.09,5.89,10.18a24.06,24.06,0,0,1-.3,2.63,26,26,0,0,1,0-3l.28-2.55A18.42,18.42,0,0,1,6,9.62c0,1,.11.54.11.54L8.48,13Z" transform="translate(1.42 3.22)"/><path class="cls-13" d="M8.37,13.09,5.89,10.18a24.06,24.06,0,0,1-.3,2.63,26,26,0,0,1,0-3l.28-2.55A18.42,18.42,0,0,1,6,9.62c0,1,.11.54.11.54L8.48,13Z" transform="translate(1.42 3.22)"/><polygon points="10.09 16.23 7.43 13.05 7.48 12.74 10.16 16.08 10.09 16.23"/><polygon class="cls-13" points="10.09 16.23 7.43 13.05 7.48 12.74 10.16 16.08 10.09 16.23"/><path class="cls-14" d="M14,19.23l-8.54,0c-.23,0-1.22,0-1.45-.77l0-1c0-.25,0-.73,0-1l.21.17a1.13,1.13,0,0,0,.48.23,2.11,2.11,0,0,0,.39,0l8.62,0a2.82,2.82,0,0,0,.58,0,1.3,1.3,0,0,0,.64-.29l.21-.18c0-.06-.06.76-.06,1l-.09.93c0,.25-.65.82-.94.87" transform="translate(1.42 3.22)"/><path class="cls-15" d="M13.9,19.64H5.73a3.69,3.69,0,0,1-1.13-.15l-.14-.18s-.37-.56-.38-.6l.48.42a.76.76,0,0,0,.39.1l.38,0,8.24,0a1.77,1.77,0,0,0,.63-.06c.22-.09.2-.13.35-.26l.39-.43s-.25.57-.25.61l-.17.22a1.64,1.64,0,0,1-.62.26" transform="translate(1.42 3.22)"/><path class="cls-16" d="M14.19,16.88H5.62a3.13,3.13,0,0,1-1.29-.22A.59.59,0,0,1,4,16.19c0-.1,0-.61,0-.73l.35.24.15.08a1.21,1.21,0,0,0,.36.11l.39,0,8.62,0a1.65,1.65,0,0,0,.57,0,2.46,2.46,0,0,0,.81-.66,5.14,5.14,0,0,1,0,.67,1.09,1.09,0,0,1-.11.45.45.45,0,0,1-.13.16,2,2,0,0,1-.76.37" transform="translate(1.42 3.22)"/><polygon class="cls-17" points="7.02 8.06 5.46 7.85 5.08 7.94 4.47 7.8 1.97 7.87 1.97 8.5 1.5 8.63 1.5 10.44 1.93 10.53 2.02 10.79 4.3 11.3 4.56 12.11 4.78 12.38 5.77 12.71 5.77 12.38 5.08 12.27 4.6 11.18 2.4 10.74 2.32 10.56 3.65 10.37 3.52 8.5 2.92 8.33 2.28 8.43 2.15 8.01 4.34 7.94 5.03 8.15 5.25 8.29 6.67 8.45 7.02 8.06"/><polygon class="cls-4" points="7.02 8.06 5.46 7.85 5.08 7.94 4.47 7.8 1.97 7.87 1.97 8.5 1.5 8.63 1.5 10.44 1.93 10.53 2.02 10.79 4.3 11.3 4.56 12.11 4.78 12.38 5.77 12.71 5.77 12.38 5.08 12.27 4.6 11.18 2.4 10.74 2.32 10.56 3.65 10.37 3.52 8.5 2.92 8.33 2.28 8.43 2.15 8.01 4.34 7.94 5.03 8.15 5.25 8.29 6.67 8.45 7.02 8.06"/><polygon class="cls-18" points="15.18 8.64 14.99 8.29 15.05 8.2 16.63 8.07 16.81 8.17 17.71 8.01 20.86 8.03 20.93 8.78 21.15 8.86 21.24 10.52 21.02 10.73 21.04 10.99 17.78 11.41 17.47 12.43 17.26 12.58 16.25 12.8 16.25 12.46 17.01 12.45 17.19 12.29 17.35 11.5 17.69 11.29 20.45 10.9 19.02 10.58 19.07 8.81 19.86 8.6 20.77 8.71 20.75 8.11 17.71 8.14 16.67 8.49 15.18 8.64"/><polygon class="cls-4" points="15.18 8.64 14.99 8.29 15.05 8.2 16.63 8.07 16.81 8.17 17.71 8.01 20.86 8.03 20.93 8.78 21.15 8.86 21.24 10.52 21.02 10.73 21.04 10.99 17.78 11.41 17.47 12.43 17.26 12.58 16.25 12.8 16.25 12.46 17.01 12.45 17.19 12.29 17.35 11.5 17.69 11.29 20.45 10.9 19.02 10.58 19.07 8.81 19.86 8.6 20.77 8.71 20.75 8.11 17.71 8.14 16.67 8.49 15.18 8.64"/><polygon class="cls-19" points="11.15 7.17 9.63 5.68 11.13 4.21 12.64 5.7 11.15 7.17"/><path class="cls-20" d="M15.29,1H4.35A.38.38,0,0,1,4,.61V.45A.38.38,0,0,1,4.35.07H15.29a.38.38,0,0,1,.38.37V.61a.38.38,0,0,1-.38.37" transform="translate(1.42 3.22)"/><path class="cls-4" d="M15.29,1H4.35A.38.38,0,0,1,4,.61V.45A.38.38,0,0,1,4.35.07H15.29a.38.38,0,0,1,.38.37V.61A.38.38,0,0,1,15.29,1Z" transform="translate(1.42 3.22)"/></g></g></g></g></g></svg>