<svg xmlns="http://www.w3.org/2000/svg" xmlns:xlink="http://www.w3.org/1999/xlink" viewBox="0 0 8 20"><defs><style>.cls-1{fill:none;}.cls-2{clip-path:url(#clip-path);}.cls-3{fill:#070100;}.cls-4{fill:#050300;}.cls-5{fill:#f4efef;}.cls-6{fill:#28a8ff;}.cls-7{fill:#010200;}.cls-8{fill:#001e25;}.cls-9{fill:#fff;}.cls-10{fill:#f7f5f5;}.cls-11{fill:#d3792f;}.cls-12{fill:#2b74ff;}.cls-13{fill:#1740ff;}.cls-14{fill:#1b5bc1;}</style><clipPath id="clip-path"><rect class="cls-1" y="0.04" width="8" height="20"/></clipPath></defs><title>TRAMDEP</title><g id="TRAM"><g id="TRAMDEP"><g class="cls-2"><g class="cls-2"><polygon class="cls-3" points="2.55 9.28 2.55 9.27 0.95 8.85 0.86 8.59 2.27 8.33 2.13 5.75 1.5 5.52 0.82 5.65 0.68 5.08 2.19 5.01 2.19 4.82 0.5 4.88 0.5 5.75 0 5.94 0 8.43 0.45 8.56 0.54 8.91 2.19 9.39 2.19 9.22 2.55 9.28"/><path class="cls-4" d="M2.86,0a.39.39,0,0,0-.4.38V.58a.39.39,0,0,0,.4.38H8V0Z"/><path class="cls-5" d="M2.75,9c0,.12.06.22.09.31l0-2a8.57,8.57,0,0,1,.75-1.49V5.73c0-.24,0-.24.21-.23L4,5.1,3.8,5.3,2.7,5.18,2.61,7.75Z"/><path class="cls-5" d="M4.6,4.31l3.4,0V3H4.51l-1,.15c-.52.4-.66,1.23-.79,1.29v.32l1.4.18c.23-.35.41-.59.48-.59"/><path class="cls-6" d="M2.75,9,2.61,7.75l0-.25c0,.3,0,1,0,1.77h0l.29,0v0c0-.09-.06-.19-.09-.31"/><path class="cls-6" d="M2.94,16.08a3,3,0,0,0,.66.14H8v-.07l-3.46,0A1.25,1.25,0,0,1,3.77,16,2.26,2.26,0,0,1,3,14.19L2.85,9.66l-.3-.1c0,1-.06,2-.06,2.29a30.22,30.22,0,0,0,0,3.92l0,.08L2.8,16l.13.07"/><path class="cls-7" d="M4.12,4.89h0L4,5.1l-.24.39h0L8,5.47V4.35l-3.4,0c-.07,0-.26.24-.48.59"/><path class="cls-7" d="M3.71,13.47,3.54,5.84a8.57,8.57,0,0,0-.75,1.49l0,2v0h0v.33h0L3,14.19A2.26,2.26,0,0,0,3.77,16a1.25,1.25,0,0,0,.77.25l3.46,0v-.81l-3.09,0c-.7,0-1.23-1.38-1.21-1.93M4,15.88a.29.29,0,1,1,.27-.29.28.28,0,0,1-.27.29"/><path class="cls-8" d="M3.74,5.49c-.2,0-.21,0-.21.23v.11l.17,7.63c0,.55.51,1.93,1.21,1.93l3.09,0V13.44H4.39a.62.62,0,0,1-.63-.61V6.78a.62.62,0,0,1,.63-.61H8v-.7l-4.22,0h0m.54,8.87a.47.47,0,0,1,.94,0v.12a.47.47,0,0,1-.94,0Z"/><path class="cls-9" d="M4.76,14.93a.46.46,0,0,0,.47-.45v-.12a.47.47,0,0,0-.94,0v.12a.46.46,0,0,0,.47.45"/><path class="cls-10" d="M3.76,6.78v6.06a.62.62,0,0,0,.63.61H8V6.17H4.39a.62.62,0,0,0-.63.61m.89,2.91L7.47,13.1l-.07.16L4.6,10Zm-.1.1c0,1,.12.55.12.55l2.53,2.95-.12.05-2.61-3a23.94,23.94,0,0,1-.31,2.69,25.87,25.87,0,0,1,0-3.08l.29-2.61a18.31,18.31,0,0,1,.12,2.42"/><path class="cls-11" d="M4,15.31a.29.29,0,1,0,.27.29A.28.28,0,0,0,4,15.31"/><path d="M4.17,13.05a23.93,23.93,0,0,0,.31-2.69l2.61,3,.12-.05L4.67,10.34s-.17.44-.12-.55a18.31,18.31,0,0,0-.12-2.42L4.14,10a25.87,25.87,0,0,0,0,3.08"/><polygon points="7.47 13.1 4.65 9.69 4.6 10 7.4 13.26 7.47 13.1"/><path class="cls-12" d="M4.05,19.63H8v-2.4H4.2l-.45,0H3.61a2.29,2.29,0,0,1-.41,0,1.21,1.21,0,0,1-.51-.23l-.23-.17c0,.29,0,.78,0,1l0,1a1,1,0,0,0,.22.4l.17.15a2.05,2.05,0,0,0,1.13.25"/><path class="cls-13" d="M3.89,19.65l-.4,0a.82.82,0,0,1-.41-.1l-.16-.13-.17-.15-.18-.15s.4.58.4.61l.14.18A4,4,0,0,0,4.31,20H8v-.37Z"/><path class="cls-14" d="M8,17.22v-1H3.35A1.3,1.3,0,0,1,3,16.1h0L2.8,16l-.24-.17-.12-.08c0,.12,0,.64,0,.74a.6.6,0,0,0,.36.49,2.53,2.53,0,0,0,.91.2l.45,0Z"/><polygon class="cls-3" points="2.19 5.06 2.31 5.14 2.7 5.18 3.8 5.3 3.98 5.1 4.16 4.9 4.12 4.89 2.72 4.71 2.53 4.69 2.19 4.77 2.19 4.82 2.19 5.01 2.19 5.06"/><polygon class="cls-3" points="2.85 9.66 2.85 9.32 2.84 9.32 2.55 9.28 2.19 9.22 2.19 9.39 2.19 9.45 2.54 9.56 2.85 9.65 2.85 9.66"/></g></g></g></g></svg>