<svg xmlns="http://www.w3.org/2000/svg" viewBox="0 0 50 50"><defs><style>.cls-1{fill:lime;}.cls-2{fill:#3e3e3e;stroke:lime;stroke-miterlimit:10;}</style></defs><title>TripInfoDeparturesSelected</title><g id="onlyLeg"><rect class="cls-1" x="19.74" y="24.78" width="10.82" height="8.23" rx="4.12" ry="4.12" transform="translate(54.05 3.75) rotate(90)"/><rect class="cls-1" x="19.54" y="12.98" width="11.15" height="8.23" rx="4.12" ry="4.12" transform="translate(42.21 -8.01) rotate(90)"/><g id="next_track" data-name="next track"><g id="Layer_86" data-name="Layer 86"><g id="Next_Track-2" data-name="Next_Track"><path class="cls-2" d="M17.4,37.2a1.53,1.53,0,0,0,1.53,1.53H31.17a1.53,1.53,0,0,0,0-3.06H27.53l5-10a.09.09,0,0,0,0,0,1.63,1.63,0,0,0,.08-.29,1.56,1.56,0,0,0,.06-.29s0,0,0,0a.93.93,0,0,0,0-.23,3,3,0,0,0-.06-.31,1.58,1.58,0,0,0-.15-.25,2,2,0,0,0-.16-.24,1.9,1.9,0,0,0-.26-.21l-.17-.14h0a1.63,1.63,0,0,0-.29-.08,1.56,1.56,0,0,0-.29-.06H27.52l5-10a.09.09,0,0,0,0,0,1.63,1.63,0,0,0,.08-.29,1.56,1.56,0,0,0,.06-.29s0,0,0,0a.93.93,0,0,0,0-.23,3,3,0,0,0-.06-.31,2.29,2.29,0,0,0-.15-.26l-.16-.24a1.37,1.37,0,0,0-.26-.21c-.06,0-.1-.1-.17-.14h0a1.63,1.63,0,0,0-.29-.08,1.56,1.56,0,0,0-.29-.06H18.86a1.84,1.84,0,0,0-.3.06,1.63,1.63,0,0,0-.29.08h0a1.52,1.52,0,0,0-.38.27l-.06.08a1.57,1.57,0,0,0-.25.36l-.06.14a1.59,1.59,0,0,0-.11.53h0a1.48,1.48,0,0,0,.15.63s0,0,0,0l5.06,10H18.88a1.84,1.84,0,0,0-.3.06,1.63,1.63,0,0,0-.29.08h0a1.52,1.52,0,0,0-.38.27l-.06.08a1.57,1.57,0,0,0-.25.36l-.06.14a1.59,1.59,0,0,0-.11.53h0a1.48,1.48,0,0,0,.15.63s0,0,0,0l5,10H18.93A1.52,1.52,0,0,0,17.4,37.2Zm4-22.94H28.7l-3.65,7.28Zm0,12.24H28.7l-3.65,7.28Zm1.15,21.75a1.54,1.54,0,0,0-1.24-1.78,21.42,21.42,0,1,1,7.43,0,1.55,1.55,0,0,0-1.24,1.78,1.53,1.53,0,0,0,1.77,1.25,24.53,24.53,0,1,0-8.49,0A1.54,1.54,0,0,0,22.56,48.25Z"/></g></g></g></g></svg>