<svg xmlns="http://www.w3.org/2000/svg" viewBox="0 0 50 50"><defs><style>.cls-1{fill:none;}.cls-2{fill:#ed1c24;}</style></defs><title>TripInfoDepartures</title><g id="onlyLeg"><g id="ship_wheel" data-name="ship wheel"><path class="cls-1" d="M16.46,24.84a6.53,6.53,0,0,1,.32-2L7.56,18.2a14.51,14.51,0,0,0,0,13.26l9.21-4.65A7,7,0,0,1,16.46,24.84Z"/><path class="cls-1" d="M22.6,17.76V8.45A19.72,19.72,0,0,0,10,14.73l9.27,4.67A8.67,8.67,0,0,1,22.6,17.76Z"/><path class="cls-1" d="M39.86,14.72A19.75,19.75,0,0,0,27.23,8.45v9.31a8.74,8.74,0,0,1,3.36,1.64Z"/><path class="cls-1" d="M9.93,34.93A19.73,19.73,0,0,0,22.6,41.25V31.94a8.94,8.94,0,0,1-3.39-1.67Z"/><path class="cls-1" d="M33,22.83a6.55,6.55,0,0,1,.33,2,6.34,6.34,0,0,1-.32,2l9.21,4.65a14.55,14.55,0,0,0,0-13.28Z"/><path class="cls-1" d="M28.73,24.84a3.61,3.61,0,0,0-3.82-3.33,3.61,3.61,0,0,0-3.82,3.33,3.61,3.61,0,0,0,3.82,3.33A3.61,3.61,0,0,0,28.73,24.84Z"/><path class="cls-1" d="M27.22,31.93v9.31a19.66,19.66,0,0,0,12.65-6.31l-9.26-4.67A8.72,8.72,0,0,1,27.22,31.93Z"/><path class="cls-2" d="M48.74,34.73l-2.46-1.24a18,18,0,0,0,0-17.33l2.48-1.26a1.9,1.9,0,0,0,.85-2.76,2.52,2.52,0,0,0-3.16-.74L43.9,12.68A24.58,24.58,0,0,0,27.22,4.36V1.86a2.18,2.18,0,0,0-2.31-2,2.18,2.18,0,0,0-2.31,2v2.5A24.51,24.51,0,0,0,5.92,12.7L3.38,11.41a2.5,2.5,0,0,0-3.16.74,1.88,1.88,0,0,0,.85,2.76l2.5,1.26a18,18,0,0,0,0,17.32L1.07,34.73a1.9,1.9,0,0,0-.85,2.76,2.39,2.39,0,0,0,2,1,2.57,2.57,0,0,0,1.15-.27L5.9,37a24.43,24.43,0,0,0,16.69,8.35v2.5a2.19,2.19,0,0,0,2.32,2,2.18,2.18,0,0,0,2.31-2V45.33A24.47,24.47,0,0,0,43.91,37l2.51,1.27a2.6,2.6,0,0,0,1.15.27,2.42,2.42,0,0,0,2-1A1.89,1.89,0,0,0,48.74,34.73ZM27.23,8.45a19.75,19.75,0,0,1,12.63,6.28L30.59,19.4a8.82,8.82,0,0,0-3.36-1.64V8.45Zm-4.64,0v9.31a9,9,0,0,0-3.37,1.65L10,14.73A19.62,19.62,0,0,1,22.6,8.45Zm-15,23a14.51,14.51,0,0,1,0-13.26l9.21,4.64a6.41,6.41,0,0,0,0,4Zm15,9.79A19.68,19.68,0,0,1,9.93,34.93l9.26-4.67a8.94,8.94,0,0,0,3.39,1.67v9.32Zm2.31-13.07a3.61,3.61,0,0,1-3.82-3.33,3.61,3.61,0,0,1,3.82-3.33,3.61,3.61,0,0,1,3.82,3.33A3.61,3.61,0,0,1,24.91,28.18Zm2.31,13.07V31.94a8.8,8.8,0,0,0,3.39-1.67l9.26,4.67A19.66,19.66,0,0,1,27.22,41.25Zm15-9.78L33,26.82a6.34,6.34,0,0,0,.32-2,6.23,6.23,0,0,0-.33-2l9.2-4.64a14.59,14.59,0,0,1,0,13.28Z"/></g></g></svg>